<svg xmlns="http://www.w3.org/2000/svg"><style>:root svg:not(:target){display:none}</style><svg viewBox="0 0 18 12" fill="none" id="mail"><path d="m16.97 1.5-.02-.01a1.9 1.9 0 0 0-1.42-.64h-10.53c-.57 0-1.07.24-1.42.63l-.01.02c-.3.34-.48.78-.48 1.26v2.96h-2.25a.28.28 0 0 0 0 .56h2.25v1.53h-.98a.28.28 0 0 0 0 .56h.98v.88c0 1.05.86 1.9 1.9 1.9h10.54a1.9 1.9 0 0 0 1.91-1.9v-6.5c0-.47-.18-.91-.47-1.25Zm-1.44-.09c.3 0 .56.1.78.25l-5.37 4.16a1.09 1.09 0 0 1-1.35 0l-5.36-4.17c.21-.15.48-.24.77-.24h10.53Zm1.35 7.83c0 .75-.6 1.35-1.35 1.35h-10.53c-.75 0-1.35-.6-1.35-1.35v-.87h2.76a.28.28 0 0 0 0-.56h-2.76v-5.06c0-.25.08-.49.2-.69l5.4 4.2a1.65 1.65 0 0 0 2.04 0l5.4-4.2c.12.2.19.44.19.7v6.48Z" fill="#21A038"></path></svg><svg viewBox="0 0 20 18" fill="none" id="marker"><path d="m11.91 12.4 2.61-3.55c.62-.8 1-1.81 1-2.92v-.02a5.37 5.37 0 0 0-5.4-5.4 5.39 5.39 0 0 0-5.38 5.08v.02l-.01.3c0 1.2.4 2.32 1.06 3.22l-.01-.02 2.26 3.3c-3.8.2-7.48 1.04-7.48 2.5 0 1.67 4.86 2.57 9.44 2.57 4.58 0 9.44-.9 9.44-2.56 0-1.5-3.7-2.33-7.53-2.51Zm-6.61-6.76a4.83 4.83 0 0 1 4.48-4.54h.01l.34-.02h.01a4.88 4.88 0 0 1 4.81 4.83c0 .98-.32 1.88-.87 2.6v-.01l-4.16 5.66-3.69-5.37a4.75 4.75 0 0 1-.93-3.17v.02Zm4.7 11.28c-5.5 0-8.88-1.17-8.88-2 0-.3.53-.79 2.01-1.22 1.57-.42 3.38-.7 5.25-.74h.03l.97 1.4h-2.56a.28.28 0 0 0 0 .57h6.11a.28.28 0 0 0 0-.56h-2.46l1.04-1.42c4.55.17 7.37 1.15 7.37 1.97 0 .83-3.38 2-8.88 2Z" fill="#21A038"></path><path d="M11.28 6.04a1.16 1.16 0 1 1-2.32 0 1.16 1.16 0 0 1 2.32 0Z" fill="#21A038"></path></svg><svg viewBox="0 0 15 15" fill="none" id="person"><path fill-rule="evenodd" clip-rule="evenodd" d="M4.17 3.33a3.33 3.33 0 1 1 6.66 0 3.33 3.33 0 0 1-6.66 0Zm0 5a4.17 4.17 0 0 0-4.17 4.17 2.5 2.5 0 0 0 2.5 2.5h10a2.5 2.5 0 0 0 2.5-2.5 4.17 4.17 0 0 0-4.17-4.17h-6.66Z" fill="#21A038"></path></svg><svg viewBox="0 0 18 14" fill="none" id="phone"><path d="M17.33 3.6v-.01a5.2 5.2 0 0 0-4.92-3.59h-6.75a5.18 5.18 0 0 0-4.9 3.55l-.01.04v.01c-.16.47-.25 1-.25 1.57 0 .37.3.67.67.67h3l-1.38 2.3a5.6 5.6 0 0 0-.8 2.9v.65c0 .9.72 1.62 1.61 1.62h11.29c.89 0 1.61-.73 1.61-1.62 0-1.48-.46-2.85-1.25-3.97l.01.03-1.32-1.91h2.97c.37 0 .66-.3.67-.67 0-.56-.1-1.1-.26-1.6l.01.03Zm-11.66-3.04h6.73a4.62 4.62 0 0 1 4.26 2.83v.03h-3.9a2.4 2.4 0 0 0-1.81-.83h-3.9c-.73 0-1.37.32-1.81.83h-3.83a4.62 4.62 0 0 1 4.25-2.86Zm-4.6 4.6c0-.42.05-.82.16-1.21v.03h3.63c-.12.24-.2.52-.22.82-.02.18-.07.34-.14.48h-3.33a.11.11 0 0 1-.11-.12Zm14.87 6.53c0 .58-.47 1.05-1.05 1.05h-11.29c-.58 0-1.05-.47-1.05-1.05v-.64c0-.97.27-1.88.74-2.65l-.02.03 1.6-2.65c.06-.04.1-.12.1-.2.13-.2.2-.46.23-.72.08-.96.88-1.7 1.84-1.7h3.9c1 0 1.8.77 1.86 1.75a1 1 0 0 0 .18.54l1.83 2.61a6.37 6.37 0 0 1 1.13 3.62v.01Zm.97-6.41h-3.37l-.1-.16a.45.45 0 0 1-.08-.24 2.4 2.4 0 0 0-.24-.91l.01.01h3.72c.1.36.16.77.16 1.2a.1.1 0 0 1-.1.1Z" fill="#21A038"></path></svg><svg viewBox="0 0 13 14" fill="none" id="ruble"><path d="M7.8 9.26h-6.97v-2.21h6.9c.52 0 .94-.08 1.28-.23.33-.16.57-.38.73-.66a2 2 0 0 0 .24-1c0-.37-.08-.7-.24-1.01-.16-.3-.4-.54-.72-.72a2.49 2.49 0 0 0-1.22-.27h-2.36v10.84h-2.75v-13.1h5.11c1.04 0 1.93.2 2.66.57a3.9 3.9 0 0 1 2.29 3.66c0 .85-.2 1.58-.6 2.2a3.9 3.9 0 0 1-1.71 1.43c-.74.34-1.62.5-2.64.5Zm.5.85v2.22h-7.47v-2.22h7.47Z" fill="#21A038"></path></svg><svg viewBox="0 0 42 42" fill="none" id="telegram"><path d="M21 .17a20.84 20.84 0 1 0 .02 41.68 20.84 20.84 0 0 0-.02-41.68Zm9.67 14.16c-.32 3.3-1.67 11.3-2.36 14.98-.29 1.57-.87 2.09-1.41 2.15-1.21.1-2.13-.8-3.3-1.56-1.83-1.21-2.87-1.96-4.64-3.13-2.06-1.35-.73-2.1.46-3.31.3-.31 5.64-5.17 5.75-5.6a.42.42 0 0 0-.1-.38c-.13-.1-.3-.06-.44-.04-.2.04-3.1 1.98-8.8 5.81-.83.56-1.58.85-2.25.83-.75-.02-2.16-.41-3.23-.77-1.3-.41-2.33-.64-2.25-1.37.05-.38.57-.75 1.55-1.15a938.2 938.2 0 0 1 12.14-5.23c5.8-2.41 6.98-2.83 7.77-2.83.17 0 .57.04.82.25.2.17.27.4.29.56-.02.13.02.5 0 .8Z" fill="#999"></path></svg><svg viewBox="0 0 42 42" fill="none" id="vk"><path d="M27.4.17h-12.78c-11.68 0-14.45 2.77-14.45 14.43v12.78c0 11.67 2.75 14.45 14.43 14.45h12.78c11.67 0 14.45-2.75 14.45-14.43v-12.78c0-11.68-2.75-14.45-14.43-14.45Zm6.4 29.73h-3.04c-1.15 0-1.5-.94-3.55-3-1.8-1.73-2.56-1.95-3.02-1.95-.63 0-.8.17-.8 1.04v2.74c0 .73-.24 1.17-2.17 1.17a11.86 11.86 0 0 1-9.27-5.56c-2.36-2.94-4-6.38-4.8-10.07 0-.45.18-.87 1.05-.87h3.03c.78 0 1.07.35 1.37 1.15 1.48 4.35 4 8.12 5.01 8.12.4 0 .57-.17.57-1.15v-4.47c-.13-2.04-1.22-2.21-1.22-2.95a.75.75 0 0 1 .78-.7h4.78c.65 0 .87.33.87 1.11v6.03c0 .66.28.87.47.87.4 0 .7-.21 1.42-.93a25 25 0 0 0 3.73-6.2 1.3 1.3 0 0 1 1.32-.88h3.04c.91 0 1.1.46.91 1.11a37.93 37.93 0 0 1-4.08 7.01c-.32.5-.46.76 0 1.35.3.45 1.37 1.34 2.09 2.19a13.51 13.51 0 0 1 2.56 3.56c.26.84-.18 1.28-1.05 1.28Z" fill="#999"></path></svg><svg viewBox="0 0 50 36" fill="none" id="youtube"><path d="M25.16.25h.28c2.57 0 15.58.1 19.1 1.04a6.28 6.28 0 0 1 4.41 4.44c.32 1.19.54 2.76.7 4.38l.02.33.07.81.03.32c.2 2.86.22 5.54.23 6.12v.23c0 .61-.03 3.47-.26 6.44l-.02.33-.03.33a30.94 30.94 0 0 1-.74 4.86 6.27 6.27 0 0 1-4.42 4.44c-3.62.98-17.4 1.05-19.31 1.05h-.45c-.96 0-4.95-.02-9.14-.16l-.53-.02-.28-.02-.53-.02-.53-.02c-3.47-.15-6.78-.4-8.3-.81a6.27 6.27 0 0 1-4.42-4.44 30.9 30.9 0 0 1-.73-4.86l-.03-.33-.02-.33a98.12 98.12 0 0 1-.26-6.36v-.38c0-.68.03-3 .2-5.56l.02-.32.01-.17.03-.32.07-.81.03-.33c.15-1.62.37-3.2.68-4.38a6.27 6.27 0 0 1 4.43-4.44c1.52-.4 4.82-.65 8.29-.8l.53-.03.54-.02h.27l.53-.03c2.98-.1 5.95-.15 8.93-.16h.6Zm-5.16 10.03v15.05l13-7.52-13-7.53Z" fill="#999"></path></svg></svg>