<svg viewBox="0 0 60 30" fill="none" xmlns="http://www.w3.org/2000/svg"><g clip-path="url(#a)" fill="#fff"><path d="M42.76 13.58a2.3 2.3 0 0 1-.35-.96 5.19 5.19 0 0 1-.04-.39c-.02-.22.04-.44.09-.66a3.16 3.16 0 0 0-.7-2.93 3.4 3.4 0 0 0-.65-.54 2.05 2.05 0 0 1-.67-.68l-.04-.06a2.04 2.04 0 0 1-.34-.7l-.05-.27c-.06-.25-.1-.5-.19-.74a3 3 0 0 0-.88-1.26 2.83 2.83 0 0 0-1.3-.68l-.42-.1c-.2-.03-.4-.11-.57-.22l-.36-.24a1.64 1.64 0 0 1-.47-.48l-.29-.42a3.17 3.17 0 0 0-3.18-1.24l-.5.08c-.21.03-.43-.03-.64-.06a1.99 1.99 0 0 1-.87-.34l-.3-.19-.41-.23a2.9 2.9 0 0 0-1.27-.27 2.9 2.9 0 0 0-1.57.42l-.36.23-.37.21a.67.67 0 0 1-.47.08l-.57-.12a3.08 3.08 0 0 0-3.01.88c-.14.14-.25.3-.38.46l-.3.37a.5.5 0 0 1-.31.18l-.59.09a3 3 0 0 0-1.6.62 3 3 0 0 0-1.1 1.6l-.12.38c-.16.5-.5.9-.94 1.15l-.5.29a3.14 3.14 0 0 0-1.4 3.08c.02.24.05.48 0 .71l-.15.54c-.05.2-.14.4-.27.57l-.37.48c-.2.26-.35.56-.44.88-.05.19-.09.38-.11.58-.07.58 0 1.13.27 1.65l.26.5c.08.16.17.31.19.49.02.22.1.44.1.67l.03.3c0 .23-.05.45-.1.67-.08.31-.17.63-.17.96.02.17.03.35.06.52.1.58.36 1.11.74 1.56.19.2.42.37.64.54a2.31 2.31 0 0 1 .92 1.51c.04.3.06.6.17.88a3.09 3.09 0 0 0 2.1 1.97l.63.19c.28.09.52.28.68.54.1.15.2.3.28.46.27.51.7.93 1.2 1.2.44.24.89.4 1.39.4.23 0 .46-.02.68-.04.22-.01.44-.05.66 0l.34.07c.29.08.56.17.8.35l.32.25c.44.35.96.56 1.51.62.62.07 1.2 0 1.76-.3.17-.08.34-.18.5-.27.17-.09.34-.15.52-.19a18.09 18.09 0 0 1 .8-.08l.69.14a3.07 3.07 0 0 0 3.32-1.15l.07-.08c.19-.27.43-.5.71-.67.32-.2.64-.34 1-.39a3.13 3.13 0 0 0 2.75-2.14c.04-.1.08-.22.1-.33a2.6 2.6 0 0 1 1.15-1.65l.28-.17a2.98 2.98 0 0 0 1.34-1.76c.1-.34.15-.7.12-1.05l-.09-.68c-.03-.2-.02-.4.02-.6l.1-.44c.03-.16.1-.31.19-.45l.3-.44a2.96 2.96 0 0 0 .59-1.77c0-.49-.07-.95-.3-1.39a5.75 5.75 0 0 0-.3-.5Zm-.3 2.08a2 2 0 0 1-.42 1.08c-.13.18-.25.36-.36.55-.12.18-.2.38-.25.6l-.06.2-.02.04-.08.5c-.02.22-.02.45.02.68l.08.7c.04.56-.32 1.45-.94 1.84l-.47.3c-.29.17-.54.4-.73.67l-.08.08-.09.13-.06.1a2.4 2.4 0 0 0-.4.8c-.04.16-.1.32-.13.49a2.2 2.2 0 0 1-1.83 1.63c-.25.04-.5.08-.74.14-.17.06-.34.12-.5.2l-.23.11a.33.33 0 0 0-.06.03l-.27.2a2.7 2.7 0 0 0-.58.54l-.27.35c-.3.4-.68.63-1.15.77-.2.07-.42.1-.63.1-.2 0-.38-.03-.57-.08-.25-.06-.5-.13-.75-.16-.18-.03-.37 0-.55 0h-.27c-.27.09-.56.1-.82.23l-.52.27c-.2.11-.41.24-.65.28-.68.14-1.32.06-1.89-.37l-.5-.38a2.22 2.22 0 0 0-.7-.32 1.55 1.55 0 0 1-.22-.09l-.5-.09a2.66 2.66 0 0 0-.68 0l-.59.05c-.44.03-.84-.12-1.22-.34a1.9 1.9 0 0 1-.73-.73l-.3-.51c-.3-.52-.8-.9-1.37-1.05l-.48-.13a2.22 2.22 0 0 1-1.65-1.98c-.04-.28-.07-.56-.18-.82a3.2 3.2 0 0 0-.94-1.3l-.36-.28a2.16 2.16 0 0 1-.81-1.27 2.07 2.07 0 0 1 0-1.02c.07-.25.12-.5.16-.76a8 8 0 0 0-.03-1l-.04-.34a2.5 2.5 0 0 0-.35-.94l-.25-.46a2.1 2.1 0 0 1-.17-1.02l.07-.45c.06-.26.17-.5.34-.7l.38-.5c.17-.25.3-.51.39-.79.05-.15.08-.3.12-.46.1-.32.1-.65.07-.98a70.2 70.2 0 0 0-.04-.41c-.05-.5.1-.95.37-1.37.17-.28.41-.51.7-.67l.56-.32a2.98 2.98 0 0 0 1.25-1.72l.11-.37c.18-.65.97-1.39 1.81-1.46.22-.02.43-.06.64-.09a1.52 1.52 0 0 0 1.02-.58c.12-.15.25-.3.36-.46a2.23 2.23 0 0 1 2.44-.87c.24.05.48.1.72.13.34.05.64-.04.93-.2.2-.1.39-.23.57-.35a2.25 2.25 0 0 1 2.4-.07c.2.11.37.23.56.35.24.14.5.24.78.3.15.04.3.06.46.09.36.07.71.03 1.07-.04.23-.04.46-.1.7-.08.68.04 1.27.3 1.7.86.13.16.23.34.35.51.18.26.4.49.66.68l.42.27c.27.18.57.28.89.35l.33.08a2.23 2.23 0 0 1 1.71 1.84c.05.24.1.48.17.7.06.17.14.33.22.49l.1.18.03.06.2.25c.16.24.37.45.61.62l.33.23c.45.31.7.76.85 1.28.1.37.08.74-.01 1.12-.05.2-.08.41-.11.62a1.8 1.8 0 0 0 .02.65c-.02.17.06.33.09.5.05.29.18.56.33.81l.26.44c.24.4.3.85.25 1.3Z"/><path d="M36.48 14.99a8.12 8.12 0 0 0-8.07-8.11 8.12 8.12 0 0 0-8.14 8.09c0 4.43 3.6 8.12 8.1 8.12a8.12 8.12 0 0 0 8.11-8.1Zm-8.12 7.45a7.45 7.45 0 1 1 .05-14.91 7.45 7.45 0 0 1-.05 14.9Zm8.56-12.46-.41.14.03.12.2.55a.16.16 0 0 0 .13.12l1.75.46.12.03v.03l-.58.2c-.2.07-.39.15-.6.2l-.07-.2-.41.15.33.97.42-.14-.09-.27 1.54-.53.1.26.41-.15a.17.17 0 0 0-.03-.1l-.19-.56a.19.19 0 0 0-.15-.14l-1.79-.44-.1-.03v-.03l1.2-.41.08.18.4-.14-.32-.95-.41.14.07.25-1.54.54-.1-.25Zm-1.89-2.51-.34.26.06.08.37.49a.16.16 0 0 0 .17.07l.55-.05 1.07-.08.3-.02.02.03-.98.76-.15-.16-.34.27.63.8.35-.26-.17-.23 1.3-1 .17.21.34-.26-.06-.09-.38-.49a.15.15 0 0 0-.15-.06l-1.7.14-.26.02-.02-.03 1-.78.14.16.34-.27-.62-.8-.34.27.15.22-1.28 1-.17-.2Zm-17.56 4.36 1.55.53-.08.25.41.14.35-1.01-.42-.14-.1.25-1.54-.53.34-1 1.55.52-.08.25.42.14.34-1.01-.41-.14-.1.25-1.54-.53.08-.25-.42-.14-.86 2.52.41.14.1-.24Zm11.31-6.49.57.03a.73.73 0 0 0 .74-.6c.04-.22 0-.42-.18-.58a.17.17 0 0 1-.03-.04l.17-.17a.66.66 0 0 0 .07-.54.75.75 0 0 0-.7-.59l-1.09-.07h-.13a2.3 2.3 0 0 0-.02.43l.24.03-.1 1.62h-.26l-.03.43h.08l.67.05Zm.19-2.07c.14.01.27.01.4.03.16.02.26.23.2.4a.25.25 0 0 1-.27.18l-.33-.02-.04-.02c0-.19.02-.37.04-.57Zm-.07 1.03c.15 0 .3.02.43.03a.2.2 0 0 1 .07.02c.11.05.17.2.14.35a.26.26 0 0 1-.27.23c-.13 0-.25-.02-.37-.03a.17.17 0 0 1-.04-.01c0-.2.02-.39.04-.6Zm3.88 1.59c-.09.12-.17.23-.24.36l.87.6.25-.36-.21-.16.49-.71.03.1c.05.31.1.62.17.93a.25.25 0 0 1-.05.22l-.2.3.67.47.27-.39a.46.46 0 0 0-.08-.06.2.2 0 0 1-.1-.17l-.17-.93v-.1l.14-.03c.25-.02.5-.04.75-.08.13-.01.26-.04.36.09l.28-.4-.7-.48-.23.33a.16.16 0 0 1-.13.08l-.9.1h-.1l.42-.61.22.14.25-.36-.88-.6-.25.36.2.15c-.1.21-.86 1.28-.93 1.34l-.2-.13Zm-13.93 2.76 1.3.9-.14.23.35.25 1.15-1.65-.74-.5-.3.43.37.26-.38.55-.5-.35.29-.42-.38-.26-.3.41-.42-.3.39-.54.3.2.29-.43-.7-.49-1.14 1.65.4.27.16-.2Zm7.5-3.09c.44 0 .76-.15.98-.4.5-.58.4-1.48-.2-1.95a1.17 1.17 0 0 0-1.59.11c-.38.4-.45 1.04-.18 1.55.23.43.59.67 1 .7Zm-.5-1.79a.6.6 0 0 1 .92-.17.94.94 0 0 1 .23 1.11.6.6 0 0 1-.97.17.92.92 0 0 1-.28-.68c0-.15.03-.3.1-.43Zm5.11 1.92a1.15 1.15 0 0 0 1.45-.06c.05-.04.09-.1.13-.15l-.44-.3-.08.07a.6.6 0 0 1-.97-.3.84.84 0 0 1-.02-.45c.07-.27.21-.5.47-.62.29-.14.66-.03.78.25a.37.37 0 0 0 .29.24l.07.03.19.05.17-.51-.25-.09a.25.25 0 0 1-.16-.12.7.7 0 0 0-.28-.27 1.16 1.16 0 0 0-1-.07c-.53.2-.87.75-.84 1.33.01.4.17.73.5.97Zm-8.94 2.09c.53-.1.97-.63.9-1.24 0-.1-.03-.2-.08-.28l-.48.23.02.1a.6.6 0 0 1-.69.7.92.92 0 0 1-.76-.89c0-.37.32-.67.69-.6a.21.21 0 0 0 .2-.06l.22-.19.06-.07-.35-.4-.21.18a.2.2 0 0 1-.14.05.81.81 0 0 0-.37.09c-.21.1-.38.28-.49.49-.23.48-.18.94.13 1.36.34.45.8.65 1.35.53Zm1.05-2.86-.13-.3.29-.14.72 1.48-.23.13c.06.13.12.26.2.39l.48-.24c.15-.08.32-.14.47-.24l-.2-.38-.24.1-.72-1.48.33-.16.15.3.47-.24-.33-.68-2.06 1 .33.68.47-.22Zm6.81 20.6.26-.02v-.39h-.11l-.5.02a.18.18 0 0 0-.16.1l-.45.64-.07.08-.06-.06-.53-.63a.14.14 0 0 0-.13-.06l-.37.01-.23.02v.2c0 .06 0 .12.02.18h.24l.03.73-.26.02.03.4.86-.05v-.38l-.18-.01-.02-.44.02-.01.6.69.29-.38.26-.36h.03l.02.45-.17.02.02.38.86-.03v-.4h-.27l-.03-.72Zm1.02-.6-.07.05a.3.3 0 0 1 .07-.3.7.7 0 0 1 .31-.2l.4-.12.15-.05-.13-.44-.34.1a.06.06 0 0 0-.03.02c0 .08-.06.08-.1.1a1.5 1.5 0 0 0-.42.2.77.77 0 0 0-.32.79l.2.75c.04.1.1.19.16.26.32.37.87.29 1.15.03.27-.24.33-.61.16-.97a.74.74 0 0 0-1.2-.22Zm.5 1a.42.42 0 0 1-.42-.41.4.4 0 0 1 .4-.4c.2 0 .37.19.37.43a.37.37 0 0 1-.36.39Zm4.85-2.77-.47-.56.16-.15-.25-.3-.67.57.25.3.17-.14.12.15-.51.43-.13-.15.16-.13-.25-.3-.67.57.25.29.18-.14.47.57-.17.15.25.3.67-.57-.25-.3-.16.13-.16-.19.52-.43.15.19-.15.14.24.3.67-.57-.24-.3-.18.14Zm-1.97 1.53-.34-.65.16-.1-.18-.34c-.15.08-.28.16-.42.22a.19.19 0 0 0-.12.16l-.19.99-.03.1-.25-.5.15-.1-.17-.33-.73.37.18.34.18-.07.33.65-.16.1.18.34c.15-.08.28-.16.42-.22a.21.21 0 0 0 .13-.17l.19-.97.03-.09.24.47-.16.1.18.34.72-.37-.17-.34-.17.07Zm-14.92-4.09.34-.18-.78-1.54c-.12.05-.23.1-.34.17l.09.2-.35.16c-.2.08-.35.02-.47-.15l-.08-.1-.34.17.12.22a.62.62 0 0 0 .69.33c.18-.04.35-.1.51-.18l.12-.05.19.37-.67.33-.1-.2c-.19.08-.29.14-.33.2l.4.82c.13-.05.24-.11.35-.18l-.11-.24.66-.33.1.18Zm5.35 4.26c-.04.12-.16.15-.25.21h-.05l-.13-.06.22-.58-.63-.25-.14.36.11.05.1.05-.26.68-.22-.08-.14.36.78.3.14-.35-.14-.07.07-.17a.2.2 0 0 1 .2.16l.18.54c0 .04.03.07.06.1l.34.13.14-.36-.14-.06a.15.15 0 0 1-.07-.05l-.17-.43.4-.23h.1l.16.07.14-.36-.68-.26-.12.3Zm15.08-8.99h-.3c-.18 0-.2-.02-.25-.19a599.34 599.34 0 0 0-.1-.27.14.14 0 0 0-.13-.1.13.13 0 0 0-.13.1l-.1.3c-.05.13-.08.16-.2.16h-.34a.14.14 0 0 0-.15.1c-.02.06 0 .12.07.17l.26.2c.1.08.12.12.08.25l-.1.33a.14.14 0 0 0 .05.18.14.14 0 0 0 .18-.02l.2-.15c.17-.13.2-.13.36 0l.2.14c.08.05.13.05.19.01.05-.04.07-.1.04-.18l-.02-.05-.08-.26c-.03-.12-.02-.17.08-.24l.27-.21a.15.15 0 0 0 .07-.11.15.15 0 0 0-.04-.12.14.14 0 0 0-.11-.04Zm-21.94 1.01.25.18c.1.06.15.07.2.02.08-.06.07-.13.04-.2l-.09-.28c-.04-.14-.03-.18.09-.26l.26-.2c.09-.08.1-.17.02-.23a.24.24 0 0 0-.13-.04h-.31c-.13 0-.16-.03-.2-.15l-.1-.31a.14.14 0 0 0-.27 0l-.03.07-.09.27a.16.16 0 0 1-.16.12h-.35a.15.15 0 0 0-.16.1c-.03.06 0 .12.07.18l.25.19c.12.09.13.12.08.27l-.09.3a.22.22 0 0 0 0 .13c.04.08.13.1.21.04l.28-.2a.17.17 0 0 1 .23 0Zm20.61 3.27c-.23-.12-.45-.23-.66-.36l.12-.22.26.12.2-.38-.58-.31-.87 1.62.59.32.2-.38-.25-.15.12-.22.66.36-.1.21.33.18.45-.83-.34-.18-.13.22Zm-.86 1.46-.17-.14-.36-.27c-.22-.15-.43-.14-.64.03-.14.12-.25.27-.32.44a.93.93 0 0 0-.08.37l.29.06.03-.11a.8.8 0 0 1 .27-.4c.1-.08.2-.07.3.03l-.15.17a.9.9 0 0 0-.24.39.43.43 0 0 0 .14.45.43.43 0 0 0 .48.09c.09-.05.16-.1.23-.16a.6.6 0 0 0 .19-.4c.03 0 .07 0 .1-.02l.36-.45-.3-.24-.14.15Zm-.34.54a.6.6 0 0 1-.1.15.16.16 0 0 1-.26-.2 12.22 12.22 0 0 1 .26-.3c.17.12.2.17.1.35Zm-17.78-.59.7.88c.13-.08.23-.2.31-.32.07-.1.1-.22.12-.34a.77.77 0 0 0-.42-.7c-.52-.31-1.09.08-1.2.53a.74.74 0 0 0-.01.26 1 1 0 0 0 .73.8l.12-.28c-.04-.03-.08-.05-.1-.08-.09-.06-.16-.13-.24-.2a.43.43 0 0 1-.12-.27.28.28 0 0 1 .11-.28Zm.66-.07c.12.14.12.26-.02.4l-.4-.5c.16-.09.3-.05.42.1Zm6.18 3.46a.8.8 0 0 0-.8.81c0 .43.3.8.83.8.54 0 .8-.44.8-.8a.8.8 0 0 0-.83-.81Zm0 1.2a.37.37 0 0 1-.35-.23.37.37 0 0 1-.02-.15c0-.24.16-.43.38-.42a.36.36 0 0 1 .36.23c.02.05.02.1.02.15 0 .29-.2.44-.38.43Zm-3.74-2.67a.82.82 0 0 0-.82.82c0 .43.4.8.84.8.43 0 .8-.37.8-.81 0-.44-.37-.8-.82-.81Zm-.02 1.21a.37.37 0 0 1-.37-.38c0-.23.19-.43.4-.43a.38.38 0 0 1 .39.37c0 .23-.2.44-.42.44Zm-.46-1.51a1.05 1.05 0 0 0-.1-.1.43.43 0 0 1-.15-.2.76.76 0 0 0-.25-.33.74.74 0 0 0-.81-.13.8.8 0 0 0-.5.72c-.04.5.44.92.94.85.1 0 .18-.04.25-.1l-.1-.16-.1-.16-.23.02a.38.38 0 0 1-.35-.43c.03-.23.24-.4.46-.37a.43.43 0 0 1 .36.36c0 .04 0 .08.03.1l.26.25.28-.32Zm18-12.46a.3.3 0 0 1-.13-.06.38.38 0 0 1-.05-.5l.03-.05-.13-.37c-.17.14-.3.29-.3.5-.02.24.06.47.2.65.15.17.34.23.58.22-.04-.11-.08-.2-.1-.3a.12.12 0 0 0-.1-.09Z"/><path d="M30.23 15.44a4.52 4.52 0 0 0-.44-.22l-.24-.08.02-.24c0-.16-.07-.23-.23-.24-.1 0-.2-.02-.3-.04-.42-.1-.78-.35-1.11-.63-.06-.05-.07-.1-.02-.17l.28-.46a7.91 7.91 0 0 1 2.27-2.1c.16-.15.32-.3.47-.47a.32.32 0 0 0 .09-.34 11.2 11.2 0 0 0-.6-.65.33.33 0 0 0-.47 0l-.08.09-2.84 2.84a.25.25 0 0 1-.18.1c-.1 0-.19.05-.26.12l-.83.84a.43.43 0 0 0-.1.48c.02.05.05.1.1.14.17.19.36.37.54.55a.39.39 0 0 0 .34.12c.12-.02.17.03.21.13l-.12.05a1.7 1.7 0 0 0-.5.3.78.78 0 0 0-.3.62v3.77l.02.13a.2.2 0 0 0 .25.14.2.2 0 0 0 .1-.06.3.3 0 0 0 .05-.16v-.68l.08.02a3.15 3.15 0 0 0 .94.31.2.2 0 0 0 .18-.3.2.2 0 0 0-.1-.09l-.14-.03c-.2-.06-.4-.12-.59-.2a1.1 1.1 0 0 1-.25-.16.3.3 0 0 1-.13-.26v-.56l.02-.1a4.1 4.1 0 0 0 1.99.45.2.2 0 0 0 .15-.13.19.19 0 0 0-.04-.2.22.22 0 0 0-.17-.07c-.2 0-.39-.02-.58-.04a3 3 0 0 1-.86-.21 1.3 1.3 0 0 1-.37-.23.31.31 0 0 1-.13-.2v-.54l.27.14a3.11 3.11 0 0 0 .83.25 4.77 4.77 0 0 0 2.56-.26l.26-.13v.04a968.4 968.4 0 0 1-.01 1.2.29.29 0 0 1-.07.1l-.19.15c-.15.1-.32.16-.5.21l-.22.06a.2.2 0 0 0-.15.16.2.2 0 0 0 .26.23c.28-.06.54-.16.79-.3l.1-.05v1.48a.2.2 0 0 0 .4 0v-3.92a.67.67 0 0 0-.19-.49 1.29 1.29 0 0 0-.26-.21Zm-1.1-.39v.1c-.05.3-.2.58-.43.8a.23.23 0 0 1-.18.07h-.73c-.16-.44-.4-.85-.71-1.2l.55-.55c.43.38.91.68 1.5.78Zm1.08-4.89.3.31.08.08-.06.08c-.17.2-.38.36-.6.5a8.67 8.67 0 0 0-2.02 1.95c-.09.1-.16.2-.23.3l-.34-.34 2.87-2.88Zm-3.61 4.52c-.2-.18-.38-.37-.56-.56l.88-.88c.2.17.39.36.56.56-.04.08-.77.82-.88.88Zm3.63 1.57a.98.98 0 0 1-.2.19c-.2.13-.41.22-.64.27-.81.18-1.61.18-2.4-.08a1.46 1.46 0 0 1-.46-.24c-.24-.18-.24-.36 0-.55.16-.13.35-.22.56-.27h.04c.09.13.16.28.21.43l-.1.02a.2.2 0 0 0-.13.21.2.2 0 0 0 .18.18h2.04a.2.2 0 0 0 0-.4h-.13l.26-.47c.25.08.5.16.7.34l.07.1a.21.21 0 0 1 0 .27Z"/><path d="M30.94 14.6h-.3a.2.2 0 0 0-.12.34.2.2 0 0 0 .13.06h.27a.2.2 0 0 0 .2-.19.2.2 0 0 0-.18-.2Zm-1.51-1.5a.2.2 0 0 0-.2.18c-.02.1-.02.2 0 .3a.2.2 0 0 0 .2.18.2.2 0 0 0 .2-.2v-.26a.2.2 0 0 0-.2-.2Zm1.04.44a.16.16 0 0 0-.07.02c-.1.09-.2.18-.28.28-.05.07-.03.17.04.23a.18.18 0 0 0 .24.02c.1-.07.17-.15.24-.23a.18.18 0 0 0 .02-.21.2.2 0 0 0-.2-.11Zm5.1 1.33a.1.1 0 0 0-.1.11.1.1 0 0 0 .14.1.1.1 0 0 0 .06-.1.1.1 0 0 0-.03-.08.1.1 0 0 0-.07-.03Zm-14.31-.87a.1.1 0 0 0 .1-.1.11.11 0 0 0-.09-.1.1.1 0 0 0-.1.06.1.1 0 0 0 0 .04.1.1 0 0 0 .1.1Zm2.34 6.26a.1.1 0 0 0-.1.1.11.11 0 0 0 .1.1.1.1 0 0 0 .1-.1.1.1 0 0 0-.1-.1Zm-2.23-4.17a.1.1 0 0 0-.17-.07.1.1 0 0 0 0 .15.1.1 0 0 0 .14 0 .1.1 0 0 0 .03-.08Zm12.19 3.78a.1.1 0 0 0-.1.1.1.1 0 0 0 .16.07.1.1 0 0 0 0-.14.1.1 0 0 0-.06-.03Zm.37-.41a.1.1 0 0 0-.1.1.1.1 0 0 0 .09.1.11.11 0 0 0 .1-.1.1.1 0 0 0-.1-.1Zm-9.47-10.41a.1.1 0 0 0 .1-.1.1.1 0 0 0-.1-.1.1.1 0 0 0-.1.1.1.1 0 0 0 .03.07.1.1 0 0 0 .07.03Zm.97 12.4a.1.1 0 0 0-.09.1.1.1 0 0 0 .1.1.1.1 0 0 0 .1-.1.1.1 0 0 0-.11-.1Zm6.37-.25a.1.1 0 0 0-.09.1.1.1 0 0 0 .1.1.1.1 0 0 0 .1-.1.1.1 0 0 0-.1-.1Zm-4.78.75a.1.1 0 1 0-.01.2.1.1 0 0 0 0-.2Zm-1.09-13.63a.11.11 0 0 0 .1-.1.1.1 0 0 0-.1-.1.1.1 0 0 0-.07.03.1.1 0 0 0-.03.08.1.1 0 0 0 .1.09Zm2.7-.42a.1.1 0 0 0 .1-.1.1.1 0 0 0-.03-.08.1.1 0 0 0-.07-.02.1.1 0 0 0-.1.1.11.11 0 0 0 .1.1Zm-6.69 10.18a.1.1 0 0 0-.1.1.1.1 0 0 0 .09.1.1.1 0 0 0 0-.2Zm6.72 3.99a.1.1 0 0 0-.1.1.1.1 0 0 0 .1.1.1.1 0 0 0 .1-.1.1.1 0 0 0-.1-.1Zm1.07-14.05a.1.1 0 0 0 .1-.1.1.1 0 0 0-.1-.1.1.1 0 0 0-.1.1.1.1 0 0 0 .03.07.1.1 0 0 0 .07.03Zm5.32 9.55a.1.1 0 0 0-.1.1.1.1 0 0 0 .1.1.1.1 0 0 0 .1-.1.11.11 0 0 0-.1-.1Zm.39-3.16a.1.1 0 0 0 .1.1.1.1 0 0 0 .1-.1.1.1 0 0 0-.03-.07.1.1 0 0 0-.06-.03.1.1 0 0 0-.1.1Zm-3.14 6.51a.1.1 0 1 0-.03.2.1.1 0 0 0 .03-.2Zm3.24-5.49a.1.1 0 0 0-.1.1.1.1 0 1 0 .1-.1Zm-1.28 3.59a.1.1 0 0 0-.1.1.1.1 0 0 0 .1.1.1.1 0 0 0 .1-.1.1.1 0 0 0-.1-.1Zm-9.31 2.18a.1.1 0 0 0-.1.1.1.1 0 0 0 .09.1.1.1 0 0 0 .1-.1.11.11 0 0 0-.1-.1Zm5.86.45a.1.1 0 0 0-.1.1.1.1 0 0 0 .16.08.1.1 0 0 0 .04-.07.1.1 0 0 0-.1-.1Zm-1.06.3a.1.1 0 0 0-.07.03.1.1 0 0 0-.03.07.1.1 0 0 0 .1.1.1.1 0 0 0 .1-.1.1.1 0 0 0-.1-.1Zm-2.75-13.93a.1.1 0 0 0 .1-.1.1.1 0 0 0-.11-.1.1.1 0 0 0-.1.1.1.1 0 0 0 .03.07.1.1 0 0 0 .07.03Zm4.3.49a.1.1 0 0 0 .1-.1.1.1 0 0 0-.1-.1.1.1 0 0 0-.07.03.1.1 0 0 0-.03.08.1.1 0 0 0 .1.1Zm-6.38.26a.1.1 0 0 0 .07-.02.1.1 0 0 0 .03-.11.1.1 0 0 0-.09-.07.1.1 0 0 0-.1.06.1.1 0 0 0 0 .04.1.1 0 0 0 .09.1Zm-.92.6a.11.11 0 0 0 .1-.1.1.1 0 0 0-.1-.1.1.1 0 0 0-.1.1.1.1 0 0 0 .1.1Zm-1.81 2.05a.1.1 0 0 0 0-.2.1.1 0 0 0-.1.1c0 .02 0 .05.03.07a.1.1 0 0 0 .07.03Zm-.27.48a.1.1 0 0 0 .1-.1.1.1 0 0 0-.2 0 .1.1 0 0 0 .1.1Zm-.22.5a.1.1 0 0 0 .07-.16.1.1 0 0 0-.07-.03.11.11 0 0 0-.1.1.1.1 0 0 0 .1.1Zm-.34 1.06a.1.1 0 0 0 .1-.06v-.04a.1.1 0 0 0-.1-.1.1.1 0 0 0-.09.1.1.1 0 0 0 .09.1Zm14.02.4a.1.1 0 0 0 .1.1.1.1 0 0 0 .1-.1.1.1 0 0 0-.1-.1.1.1 0 0 0-.1.1Zm-.1-.54a.1.1 0 0 0 .06.1.1.1 0 0 0 .04 0 .1.1 0 0 0 .1-.1.1.1 0 0 0-.1-.1.1.1 0 0 0-.09.06.1.1 0 0 0-.01.04Zm-.72 5.24a.1.1 0 0 0-.1.1.1.1 0 0 0 0 .03.1.1 0 0 0 .06.06.1.1 0 0 0 .07 0 .1.1 0 0 0 .07-.09.1.1 0 0 0-.1-.1Zm-9.14-10.04a.1.1 0 0 0 .1-.11.1.1 0 0 0-.14-.08.1.1 0 0 0-.06.08.1.1 0 0 0 .03.08.1.1 0 0 0 .07.03Zm9.13 2.88a.1.1 0 0 0 .07-.18.1.1 0 0 0-.07-.03.1.1 0 0 0-.07.03.1.1 0 0 0-.02.11.1.1 0 0 0 .1.06Zm-12.06-.45a.1.1 0 0 0 .1-.1.1.1 0 0 0-.07-.09.1.1 0 0 0-.04 0 .1.1 0 0 0-.1.1.1.1 0 0 0 .1.1Zm.69-.85a.1.1 0 0 0 .1-.09.1.1 0 0 0-.1-.1.1.1 0 0 0 0 .2Zm-.34 9.37a.1.1 0 0 0-.08.03.1.1 0 0 0-.02.07.1.1 0 0 0 .1.1.1.1 0 0 0 .1-.1.1.1 0 0 0-.1-.1Zm9.88-10.12a.1.1 0 0 0 .1-.1.1.1 0 0 0-.06-.09.1.1 0 0 0-.04 0 .1.1 0 0 0 0 .2Zm-8.69 11.26a.1.1 0 0 0-.1.06.1.1 0 0 0 0 .04.1.1 0 0 0 .1.1.1.1 0 0 0 .09-.1.1.1 0 0 0-.1-.1Zm7.77-11.86a.1.1 0 0 0 .1-.1.1.1 0 0 0-.2 0 .1.1 0 0 0 .1.1Zm-5.32 13.08a.1.1 0 0 0-.1.08.1.1 0 0 0 .1.11.1.1 0 0 0 .1-.1.1.1 0 0 0-.1-.1Zm-5.3-6.73a.1.1 0 0 0 0-.2.1.1 0 0 0-.1.08.1.1 0 0 0 .1.12Zm9.09-6.96a.1.1 0 0 0 .1-.1.1.1 0 0 0-.1-.1.1.1 0 0 0-.08.04.1.1 0 0 0-.02.07.1.1 0 0 0 .1.09Zm-2.73-.2a.1.1 0 0 0 .06-.17.1.1 0 0 0-.13 0 .1.1 0 0 0-.04.07.1.1 0 0 0 .11.1Zm.55-.04a.1.1 0 0 0 .1-.1.1.1 0 0 0-.1-.1.1.1 0 0 0-.1.1.1.1 0 0 0 .06.09.1.1 0 0 0 .04 0Zm7.14 5a.1.1 0 0 0 .1-.1.1.1 0 0 0-.1-.1.1.1 0 0 0-.1.06.1.1 0 0 0 0 .04.1.1 0 0 0 .1.1Zm0 4.15a.1.1 0 0 0-.07.17.1.1 0 0 0 .06.03.1.1 0 0 0 .11-.1.1.1 0 0 0-.1-.1Zm-.2-4.67a.1.1 0 0 0 .08-.17.1.1 0 0 0-.14 0 .1.1 0 0 0 0 .13.1.1 0 0 0 .06.04Zm-1.88-2.68a.1.1 0 0 0 .1-.1.1.1 0 0 0-.1-.1.1.1 0 1 0 0 .2Zm1.09 1.23a.1.1 0 0 0 .1-.1.1.1 0 0 0-.09-.1.1.1 0 0 0-.1.1.1.1 0 0 0 .02.07.1.1 0 0 0 .07.03Zm-11.42-.41a.1.1 0 0 0 .07-.17.1.1 0 0 0-.17.07.1.1 0 0 0 .1.1Zm10.72-.44a.1.1 0 0 0 .1-.1.1.1 0 0 0-.09-.1.1.1 0 0 0-.1.06.1.1 0 0 0 0 .04.1.1 0 0 0 .05.1.1.1 0 0 0 .04 0Zm.37.42a.1.1 0 0 0 .1-.1.1.1 0 0 0-.1-.1.1.1 0 0 0-.07.02.1.1 0 0 0-.03.07.1.1 0 0 0 .03.07.1.1 0 0 0 .07.03Zm.91 7.58a.1.1 0 0 0-.1.1.1.1 0 0 0 .1.1.1.1 0 0 0 .1-.1.1.1 0 0 0-.1-.1Zm-4.02-9.78a.1.1 0 0 0 .06-.03.1.1 0 0 0 0-.13.1.1 0 0 0-.07-.03.1.1 0 0 0-.1.1.1.1 0 0 0 .1.1Zm-4.35-.15a.1.1 0 0 0 .1-.1.1.1 0 0 0-.1-.1.1.1 0 0 0-.1.1.11.11 0 0 0 .1.1Zm8.93 8.37a.1.1 0 0 0-.09.07.1.1 0 0 0 .02.1.1.1 0 0 0 .17-.07.1.1 0 0 0-.1-.1Zm-5.1 5.3a.1.1 0 0 0-.1.1.1.1 0 0 0 .1.1.1.1 0 1 0 0-.2Zm-7.09-1.94a.1.1 0 0 0-.09.07.1.1 0 0 0 .04.1.1.1 0 0 0 .07.02.1.1 0 0 0 .06-.03.1.1 0 0 0 .01-.1.1.1 0 0 0-.05-.06.1.1 0 0 0-.04 0Zm4.36 2.15a.1.1 0 0 0-.1.1.1.1 0 0 0 .07.1.1.1 0 0 0 .13-.14.1.1 0 0 0-.1-.06Zm5.61-1.77a.1.1 0 0 0-.1.09.1.1 0 0 0 .03.07.1.1 0 0 0 .07.03.1.1 0 0 0 .1-.1.1.1 0 0 0-.06-.09.1.1 0 0 0-.04 0Zm-5.06 1.81a.1.1 0 0 0-.06.03.1.1 0 0 0-.03.08.1.1 0 0 0 .2 0 .1.1 0 0 0-.1-.1Zm4.63-1.47a.1.1 0 0 0-.1.1.1.1 0 0 0 .1.1.1.1 0 0 0 .1-.1.1.1 0 0 0-.06-.09.1.1 0 0 0-.04 0Zm-8.25.32a.1.1 0 0 0-.07.03.1.1 0 0 0-.03.08.1.1 0 0 0 .09.1.1.1 0 0 0 .1-.1.1.1 0 0 0-.09-.1Zm-.89-11.2a.1.1 0 0 0 .08-.14.1.1 0 0 0-.06-.05.1.1 0 0 0-.12.1.1.1 0 0 0 .1.1Zm-2.39 4.82a.1.1 0 0 0 .07-.02.1.1 0 0 0 .03-.07.1.1 0 0 0-.09-.1.1.1 0 0 0-.1.1.1.1 0 0 0 .09.1Zm11.07-5.51a.1.1 0 0 0 .07-.03.1.1 0 0 0 .03-.07.1.1 0 0 0-.1-.1.1.1 0 0 0-.07.04.1.1 0 0 0-.02.1.1.1 0 0 0 .1.06Zm3.21 6.95a.1.1 0 0 0-.1.1.1.1 0 0 0 .1.1.1.1 0 0 0 .07-.03.1.1 0 0 0 .03-.07.1.1 0 0 0-.1-.1Zm-4.15 5.47a.1.1 0 0 0-.08.03.1.1 0 0 0 0 .14.1.1 0 0 0 .07.03.1.1 0 0 0 0-.2Zm-9.86-4.82a.1.1 0 0 0-.17-.07.1.1 0 0 0 0 .14.1.1 0 0 0 .08.03.1.1 0 0 0 .1-.1Zm-.17-1.09a.1.1 0 0 0-.1-.1.1.1 0 0 0-.09.07.1.1 0 0 0 0 .04.1.1 0 0 0 .1.1.1.1 0 0 0 .1-.1Zm.23 1.53a.1.1 0 0 0-.1.1.1.1 0 0 0 .02.06.1.1 0 0 0 .07.03.1.1 0 0 0 .07-.03.1.1 0 0 0-.06-.16Zm.97 1.96a.1.1 0 0 0-.07.17.1.1 0 0 0 .07.03.1.1 0 0 0 .07-.03.1.1 0 0 0 .03-.07.1.1 0 0 0-.03-.07.1.1 0 0 0-.08-.03Zm-.79-1.44a.1.1 0 0 0-.1.08.1.1 0 0 0 .11.1.1.1 0 0 0 .08-.06.1.1 0 0 0-.09-.12Zm13.11-5.72a.1.1 0 0 0 .1-.1.1.1 0 0 0-.1-.1.1.1 0 0 0-.1.07.1.1 0 0 0 0 .03.1.1 0 0 0 .02.08.1.1 0 0 0 .07.03Zm-13.31 1.05a.1.1 0 0 0 .1-.06.1.1 0 0 0 0-.04.1.1 0 0 0-.1-.1.1.1 0 0 0-.09.06.1.1 0 0 0 0 .04.1.1 0 0 0 .1.1Zm.69 5.65a.1.1 0 0 0-.07.03.1.1 0 0 0-.03.07.1.1 0 1 0 .2-.01.1.1 0 0 0-.07-.09.1.1 0 0 0-.04 0Zm3.75 3.09a.1.1 0 0 0-.1.1.1.1 0 0 0 .04.07.1.1 0 0 0 .06.02.1.1 0 0 0 .07-.03.1.1 0 0 0 .03-.06.1.1 0 0 0-.03-.07.1.1 0 0 0-.07-.03Zm3.25-13.72a.1.1 0 0 0 .08-.1.1.1 0 0 0-.19-.04.1.1 0 0 0 0 .04.1.1 0 0 0 .03.07.1.1 0 0 0 .07.03Zm0 14.09a.1.1 0 1 0 0 .2.1.1 0 0 0 0-.2Zm-21.04-1.53c.82-1.59 1.72-3.14 2.46-4.77.82-1.8-.2-3.66-2.1-4.06a2.97 2.97 0 0 0-3.58 2.66c-.19 1.62 1.06 3 2.8 3.08h.88l-1.8 3.09h1.34Zm-.14-4.06c-1.16.02-2-.78-2.02-1.9a1.9 1.9 0 0 1 1.97-1.95c1.09 0 1.87.8 1.88 1.91.01 1.12-.75 1.93-1.83 1.94Zm-5.18-4.73c-.62.29-1.04.47-1.46.68-.46.24-.9.5-1.38.77l.05 1.02 1.61-.79v6.22h-.74v.87h2.68v-.87h-.74v-4c0-1.23.02-2.46-.02-3.9Zm9.42-3.16h-12.21v.6h12.2v-.6Zm0 14.45h-12.21v.58h12.2v-.59Zm46.82-14.45h-13.93v.6h13.93v-.6Zm0 14.45h-13.93v.58h13.93v-.59Zm-13.08-4.87a2.62 2.62 0 1 0 3.95-2.24 2.34 2.34 0 1 0-2.68 0 2.61 2.61 0 0 0-1.27 2.24Zm1.2-4.16a1.41 1.41 0 1 1 1.47 1.41h-.12a1.41 1.41 0 0 1-1.35-1.4Zm1.41 2.47a1.69 1.69 0 1 1 0 3.38 1.69 1.69 0 0 1 0-3.38Zm7.09 4.3c-.62 0-1.15-.16-1.6-.48-.44-.32-.8-.77-1.06-1.34l.76-.51c.2.44.46.8.78 1.05.31.25.7.38 1.16.38.5 0 .88-.14 1.15-.42.28-.3.42-.68.42-1.18 0-.61-.18-1.06-.55-1.35-.36-.3-.94-.44-1.71-.44v-.88c.7 0 1.24-.14 1.6-.4.38-.27.56-.68.56-1.22 0-.41-.12-.74-.37-.99s-.6-.37-1.08-.37c-.44 0-.82.13-1.13.4-.32.27-.54.64-.68 1.1l-.77-.43c.15-.41.34-.77.6-1.06.24-.29.53-.5.87-.66a2.5 2.5 0 0 1 1.13-.25c.7 0 1.27.2 1.68.6.43.4.64.95.64 1.62 0 .41-.09.78-.27 1.1a1.97 1.97 0 0 1-1.73 1.06v-.18c.63 0 1.14.22 1.54.64.41.43.62 1 .62 1.7 0 .53-.1.97-.31 1.34-.2.38-.5.67-.88.87-.39.2-.84.3-1.37.3Z"/></g><defs><clipPath id="a"><path fill="#fff" d="M0 0h59.13v30h-59.13z"/></clipPath></defs></svg>