<svg viewBox="0 0 159 25" fill="none" xmlns="http://www.w3.org/2000/svg"><g clip-path="url(#a)"><path d="M42.24 10.86h-3.58l-.7 2.4h-2.85l3.69-10.96h3.41l3.7 10.97h-2.97l-.7-2.41Zm-3.04-2.01h2.5l-1.22-4.23h-.06l-1.22 4.23Zm10.34-7.1h-2.7v11.52h2.7v-11.52Zm6.71 2.95a3 3 0 0 1 2.5 1.13c.6.76.9 1.83.9 3.2a5.1 5.1 0 0 1-.9 3.2 2.94 2.94 0 0 1-2.47 1.15c-1.27 0-2.13-.52-2.6-1.56h-.04v4.03h-2.7v-11.04h2.68v1.48h.05c.22-.5.55-.9 1-1.17a2.9 2.9 0 0 1 1.58-.43Zm-1 6.56c.5 0 .9-.2 1.2-.6.29-.4.43-.95.43-1.63 0-.67-.14-1.2-.44-1.6a1.4 1.4 0 0 0-1.18-.62c-.5 0-.9.2-1.19.61-.3.4-.44.95-.44 1.62 0 .68.15 1.22.44 1.62.3.4.69.6 1.19.6Zm5.53-9.51h2.64v4.64h.05c.46-1.15 1.36-1.73 2.73-1.73.94 0 1.68.28 2.22.84.54.57.8 1.36.8 2.35v5.42h-2.7v-4.84c0-.48-.13-.87-.39-1.15a1.45 1.45 0 0 0-1.1-.42c-.46 0-.83.15-1.12.45-.3.31-.44.7-.44 1.2v4.76h-2.7v-11.52Zm13.24 9.76c.44 0 .82-.12 1.12-.36.32-.24.48-.55.48-.93v-.59l-1.56.11c-.79.06-1.18.36-1.18.9 0 .27.1.48.3.64.21.15.49.23.84.23Zm-.95 1.87a3 3 0 0 1-2.03-.71 2.33 2.33 0 0 1-.83-1.85c0-1.59 1.14-2.45 3.43-2.6l1.98-.11v-.5c0-.33-.11-.6-.34-.78a1.4 1.4 0 0 0-.91-.28c-.36 0-.66.1-.9.26a.96.96 0 0 0-.4.66h-2.43c.04-.86.4-1.55 1.1-2.06a4.5 4.5 0 0 1 2.76-.79 4.4 4.4 0 0 1 2.72.79 2.48 2.48 0 0 1 1.03 2.06v5.8h-2.61v-1.22h-.06a2.3 2.3 0 0 1-1.04.98 3.2 3.2 0 0 1-1.47.35Zm9.68-8.58h2.61v1.63h.06a2.45 2.45 0 0 1 2.41-1.77c.63 0 1.15.16 1.56.46.41.32.68.76.8 1.34h.06c.16-.55.48-.99.95-1.31a2.87 2.87 0 0 1 1.66-.49c.83 0 1.5.26 2 .8.52.52.78 1.22.78 2.08v5.73h-2.7v-5.05c0-.91-.4-1.37-1.21-1.37-.38 0-.68.13-.9.38-.23.25-.35.6-.35 1.02v5.02h-2.57v-5.09c0-.42-.1-.75-.32-.99-.2-.22-.5-.34-.9-.34-.37 0-.68.13-.9.39-.24.26-.35.6-.35 1.03v5h-2.7v-8.46Zm17.68 6.71c.44 0 .82-.12 1.12-.36.32-.24.48-.55.48-.93v-.59l-1.56.11c-.79.06-1.18.36-1.18.9 0 .27.1.48.3.64.21.15.49.23.84.23Zm-.95 1.87c-.8 0-1.48-.24-2.03-.71a2.33 2.33 0 0 1-.83-1.85c0-1.59 1.14-2.45 3.43-2.6l1.98-.11v-.5c0-.33-.11-.6-.34-.78a1.4 1.4 0 0 0-.91-.28c-.36 0-.66.1-.9.26a.97.97 0 0 0-.4.66h-2.43c.04-.86.4-1.55 1.1-2.06a4.5 4.5 0 0 1 2.76-.79 4.4 4.4 0 0 1 2.72.79 2.48 2.48 0 0 1 1.03 2.06v5.8h-2.61v-1.22h-.06a2.3 2.3 0 0 1-1.04.98 3.2 3.2 0 0 1-1.47.35Zm6.52-8.58h2.63v1.6h.05c.3-1.14.97-1.7 2-1.7.24 0 .47.03.68.1v2.3c-.23-.1-.52-.14-.86-.14-.58 0-1.03.15-1.33.47-.31.32-.47.77-.47 1.37v4.47h-2.7v-8.46Zm11.5 0h3l-3.04 3.63 3.22 4.84h-3.1l-2.11-3.23-.52.6v2.63h-2.69v-11.52h2.7v6.3h.05l2.48-3.24Z" fill="#fff"/><path d="M124.77 6.54c-.43 0-.8.14-1.09.43-.3.3-.46.66-.5 1.11h3.16a1.66 1.66 0 0 0-.47-1.12 1.53 1.53 0 0 0-1.1-.42Zm4.06 4.07a3 3 0 0 1-1.28 2.07c-.72.51-1.63.77-2.73.77a4.2 4.2 0 0 1-3.14-1.16 4.39 4.39 0 0 1-1.15-3.21c0-1.36.38-2.45 1.14-3.26a4 4 0 0 1 3.06-1.2 4.1 4.1 0 0 1 3.03 1.15c.75.77 1.12 1.8 1.12 3.09v.77h-5.72v.16c0 .52.16.94.47 1.26.31.32.72.49 1.23.49.8 0 1.32-.31 1.54-.93h2.43Zm4.5-7.68v1.87h1.53v2h-1.53v3.6c0 .6.33.9.98.9.2 0 .37-.01.55-.04v1.92c-.3.07-.7.1-1.19.1-1.08 0-1.86-.18-2.33-.54-.47-.36-.7-.96-.7-1.8v-4.14h-1.13v-2h1.13v-1.87h2.7Zm2.71 1.87h2.7v8.47h-2.7v-8.46Zm1.35-.7c-.39 0-.71-.12-.98-.37a1.24 1.24 0 0 1-.4-.95c0-.38.13-.7.4-.95.27-.26.6-.39.98-.39s.7.13.98.39c.27.25.4.57.4.95s-.13.7-.4.95-.6.38-.98.38Zm2.72.7h2.61v1.6h.06c.47-1.16 1.37-1.74 2.7-1.74.94 0 1.68.28 2.22.85.53.56.8 1.34.8 2.34v5.42h-2.7v-4.85c0-.49-.13-.87-.38-1.14a1.4 1.4 0 0 0-1.08-.42c-.46 0-.83.15-1.11.45-.29.3-.43.7-.43 1.18v4.78h-2.69v-8.46Zm13.82 6.39c.5 0 .9-.2 1.19-.57.3-.38.44-.9.44-1.59a2.7 2.7 0 0 0-.44-1.62c-.3-.4-.7-.6-1.2-.6s-.9.2-1.18.6c-.3.4-.44.94-.44 1.62 0 .68.14 1.21.43 1.6.3.37.69.55 1.2.55Zm-.05 5.22c-1.2 0-2.17-.23-2.91-.7a2.28 2.28 0 0 1-1.19-1.89h2.62c.05.24.23.43.52.58.28.14.62.21 1 .21.5 0 .9-.11 1.19-.35.29-.23.44-.56.44-.96v-1.6h-.06a2.1 2.1 0 0 1-.95 1.07c-.46.28-1 .41-1.62.41a3 3 0 0 1-2.44-1.1 4.68 4.68 0 0 1-.93-3.07c0-1.34.3-2.4.91-3.16a3.01 3.01 0 0 1 2.5-1.16c.6 0 1.13.15 1.59.44.45.3.77.68.97 1.16h.04v-1.48h2.69v8.3c0 1-.4 1.8-1.2 2.4-.8.6-1.85.9-3.17.9Zm-115.15 3.92h-2.38l-.63 1.74h-.57l2.12-5.67h.54l2.12 5.67h-.57l-.63-1.74Zm-2.22-.46h2.06l-1.02-2.8h-.02l-1.02 2.8Zm7.36 2.2h-.7l-2.07-2.07h-.02v2.07h-.51v-4.23h.51v1.9h.02l2.03-1.9h.66l-2.16 2 2.24 2.23Zm3.61-3.8h-1.44v3.8h-.52v-3.8h-1.44v-.43h3.4v.43Zm.99 5.27c-.09 0-.17 0-.26-.03v-.44c.08.02.17.02.26.02.19 0 .35-.05.47-.16.11-.11.22-.3.31-.57l.1-.26-1.6-4.26h.57l1.3 3.7 1.3-3.7h.55l-1.65 4.43c-.18.5-.37.84-.55 1-.19.18-.45.27-.8.27Zm4.89-1.88c.38 0 .7-.11.96-.34.25-.23.38-.5.38-.84v-.47l-1.24.09c-.72.04-1.09.3-1.09.8 0 .22.1.4.28.55.18.14.42.21.71.21Zm-.1.46c-.42 0-.76-.12-1.02-.34-.26-.23-.4-.53-.4-.9 0-.73.52-1.13 1.56-1.2l1.3-.1v-.35c0-.31-.1-.55-.28-.72a1.14 1.14 0 0 0-.8-.26c-.29 0-.53.07-.73.21a.92.92 0 0 0-.36.6h-.5c.02-.37.18-.68.49-.91.3-.24.67-.36 1.11-.36.49 0 .87.12 1.16.38.29.25.43.59.43 1.01v2.89h-.5v-.81c-.12.26-.31.46-.57.62a1.7 1.7 0 0 1-.89.24Zm3.89-1.87a3.7 3.7 0 0 1-.3 1.34.89.89 0 0 1-1.07.48v-.48c.06.02.14.03.21.03.21 0 .37-.13.48-.38.09-.22.15-.56.18-1.01.06-.63.12-1.43.17-2.4h2.7v4.24h-.5v-3.8h-1.73c-.04.81-.1 1.47-.14 1.98Zm3.9-.54v1.92h.92c.3 0 .55-.08.74-.26a.9.9 0 0 0 .27-.7.9.9 0 0 0-.27-.7 1.03 1.03 0 0 0-.74-.25h-.92Zm-.51-1.87h.51v1.43h.92c.46 0 .84.13 1.11.38.28.26.42.6.42 1.02 0 .43-.14.77-.42 1.02a1.6 1.6 0 0 1-1.11.38h-1.43v-4.23Zm6.63 2.25h-2.37v1.98h-.51v-4.23h.51v1.81h2.37v-1.81h.52v4.23h-.52v-1.98Zm5.13-2.25h.51v4.23h-.51v-4.23Zm-3.08 1.88v1.91h.91c.31 0 .56-.08.75-.26a.9.9 0 0 0 .27-.7.9.9 0 0 0-.28-.7 1.03 1.03 0 0 0-.74-.25h-.91Zm-.52-1.88h.52v1.43h.91c.47 0 .84.13 1.12.38.28.26.42.6.42 1.02 0 .43-.14.77-.42 1.02a1.6 1.6 0 0 1-1.12.38h-1.43v-4.23Zm6.1-1.78c0 .23.08.42.22.57.15.15.34.22.58.22.23 0 .42-.07.57-.22a.8.8 0 0 0 .2-.57h.4c0 .33-.1.6-.32.81-.22.2-.5.31-.85.31-.36 0-.65-.1-.86-.31-.22-.2-.33-.48-.33-.81h.4Zm-.97 6v-4.22h.51v3.42h.03l2.4-3.42h.51v4.23h-.51v-3.42h-.03l-2.4 3.42h-.51Zm6.25.01v-4.23h.62l1.67 3.54h.02l1.67-3.54h.6v4.23h-.52v-3.29h-.02l-1.55 3.2h-.4l-1.55-3.2h-.03v3.29h-.51Zm6.94-.41c.38 0 .7-.11.95-.34.26-.23.39-.5.39-.84v-.47l-1.24.09c-.72.04-1.09.3-1.09.8 0 .22.1.4.28.55.18.14.42.21.71.21Zm-.1.46c-.42 0-.76-.12-1.02-.34-.27-.23-.4-.53-.4-.9 0-.73.52-1.13 1.56-1.2l1.3-.1v-.35c0-.31-.1-.55-.28-.72a1.14 1.14 0 0 0-.8-.26c-.29 0-.53.07-.73.21a.92.92 0 0 0-.36.6h-.5c.02-.37.18-.68.48-.91.3-.24.67-.36 1.12-.36.49 0 .87.12 1.16.38.29.25.43.59.43 1.01v2.89h-.5v-.81c-.12.26-.31.46-.57.62a1.7 1.7 0 0 1-.89.24Zm4.89-4.33c.53 0 .97.2 1.3.6.34.4.5.92.5 1.56s-.16 1.17-.5 1.57c-.33.4-.76.6-1.3.6-.33 0-.62-.09-.88-.26a1.46 1.46 0 0 1-.56-.66h-.01v2.26h-.52v-5.62h.5v.87c.12-.27.3-.5.57-.66.27-.17.57-.26.9-.26Zm-.1 3.86c.42 0 .75-.16 1-.47.25-.3.37-.72.37-1.23 0-.5-.12-.92-.37-1.23a1.21 1.21 0 0 0-1-.47c-.4 0-.72.16-.97.47a1.9 1.9 0 0 0-.38 1.23c0 .5.12.91.38 1.23.25.31.58.47.98.47Zm6.01.42h-.7l-2.07-2.07h-.02v2.07h-.52v-4.23h.52v1.9h.02l2.03-1.9h.66l-2.16 2 2.24 2.23Zm2.16-3.82c-.38 0-.69.13-.93.39-.25.25-.38.6-.4 1.02h2.63c0-.43-.13-.77-.36-1.02a1.2 1.2 0 0 0-.94-.4Zm1.79 2.62c-.07.36-.26.66-.58.9-.32.23-.71.35-1.17.35-.58 0-1.05-.2-1.4-.58a2.28 2.28 0 0 1-.51-1.58c0-.66.17-1.18.51-1.58.35-.4.8-.6 1.37-.6.56 0 1 .2 1.33.57.34.37.5.87.5 1.5v.23h-3.18v.03c0 .47.13.85.39 1.13.25.28.58.42 1 .42.32 0 .58-.08.8-.22a.95.95 0 0 0 .42-.57h.52Zm3.83-2.6h-1.45v3.8h-.51v-3.8h-1.45v-.43h3.41v.43Zm.66 3.8v-4.23h.52v3.42h.02l2.4-3.42h.52v4.23h-.51v-3.42h-.03l-2.4 3.42h-.52Zm7.36-1.98h-2.37v1.98h-.52v-4.23h.52v1.81h2.37v-1.81h.52v4.23h-.52v-1.98Zm2.04-1.82v3.8h-.51v-4.23h2.68v.43h-2.17Zm4.72 3.8v-4.23h.51v3.42h.02l2.4-3.42h.52v4.23h-.51v-3.42h-.03l-2.4 3.42h-.51Zm9.1-3.8h-2.34v3.8h-.51v-4.23h3.36v4.23h-.51v-3.8Zm3.5-.48c.53 0 .96.2 1.3.6.33.4.5.92.5 1.56s-.17 1.17-.5 1.57c-.33.4-.76.6-1.3.6a1.6 1.6 0 0 1-.89-.26 1.46 1.46 0 0 1-.55-.66h-.01v2.26h-.52v-5.62h.49v.87c.12-.27.31-.5.57-.66.28-.17.57-.26.9-.26Zm-.1 3.86c.41 0 .74-.16 1-.47.24-.3.37-.72.37-1.23 0-.5-.13-.92-.38-1.23a1.21 1.21 0 0 0-.99-.47c-.4 0-.73.16-.98.47a1.9 1.9 0 0 0-.38 1.23c0 .5.13.91.38 1.23.25.31.58.47.98.47Zm4.41.47c-.58 0-1.05-.2-1.4-.6a2.27 2.27 0 0 1-.52-1.57c0-.66.17-1.18.52-1.58.35-.39.82-.58 1.4-.58s1.05.2 1.4.58c.35.4.53.92.53 1.58s-.18 1.18-.53 1.58a1.8 1.8 0 0 1-1.4.59Zm0-.47c.43 0 .77-.15 1.02-.45.25-.3.38-.72.38-1.25s-.13-.94-.38-1.25c-.25-.3-.59-.45-1.02-.45-.43 0-.77.15-1.02.45-.25.3-.37.72-.37 1.25s.12.94.37 1.25c.25.3.59.45 1.02.45Zm5.61-3.38h-1.83c-.04.75-.09 1.41-.15 1.98-.05.66-.18 1.12-.38 1.36v.02h2.37v-3.36Zm-3.32 4.92v-1.56h.35c.28-.18.45-.65.51-1.4.08-.97.13-1.77.17-2.4h2.82v3.8h.68v1.56h-.49v-1.12h-3.55v1.12h-.49Zm6.52-1.53c.38 0 .7-.11.95-.34.26-.23.39-.5.39-.84v-.47l-1.24.09c-.73.04-1.09.3-1.09.8 0 .22.1.4.28.55.18.14.42.21.71.21Zm-.1.46c-.42 0-.77-.12-1.03-.34-.26-.23-.4-.53-.4-.9 0-.73.53-1.13 1.57-1.2l1.3-.1v-.35c0-.31-.1-.55-.28-.72a1.14 1.14 0 0 0-.8-.26c-.3 0-.54.07-.73.21a.92.92 0 0 0-.36.6h-.5c.02-.37.18-.68.48-.91.3-.24.67-.36 1.12-.36.48 0 .87.12 1.16.38.28.25.42.59.42 1.01v2.89h-.5v-.81c-.12.26-.3.46-.57.62a1.7 1.7 0 0 1-.88.24Zm8.22-.05h-.68l-1.9-2.07h-.02v2.07h-.52v-2.07h-.02l-1.9 2.07h-.67l2.05-2.2-1.98-2.03h.65l1.85 1.9h.02v-1.9h.52v1.9h.02l1.85-1.9h.65l-1.98 2 2.06 2.23Zm.61 0v-4.23h.52v3.42h.02l2.4-3.42h.52v4.23h-.51v-3.42h-.03l-2.4 3.42h-.52Z" fill="#fff"/><path fill-rule="evenodd" clip-rule="evenodd" d="m20.08 14.9.06-.25 1.78 5.45-.22.3v-.02l-.06.12c-5.12 6.8-15.96 5.48-19.98-1.44-4.25-7.35.07-17.07 8.4-18.81.86-.16 1.75-.25 2.63-.25 3.96 0 8.12 1.72 10.24 5.18l1.65-4.5h5.15l-3.9 10.81 2.52 6.99a1.5 1.5 0 0 0 1.75.92l.21-.06 1.38 4.62-1.65.43a4.8 4.8 0 0 1-5.67-2.88c-.22-.4-.43-.83-.58-1.29l-.92-2.42-.06-.09v-.03l-2.06-6.22c-1.13-3.43-3.25-5.08-4.93-5.76a7.22 7.22 0 0 0-3.06-.64 7.63 7.63 0 0 0-7.7 7.57 7.63 7.63 0 0 0 7.7 7.56 7.68 7.68 0 0 0 7.32-5.3Z" fill="url(#b)"/></g><defs><linearGradient id="b" x1=".041" y1=".352" x2="30.679" y2=".352" gradientUnits="userSpaceOnUse"><stop stop-color="#7A5FFF"/><stop offset="1" stop-color="#00E824"/></linearGradient><clipPath id="a"><path fill="#fff" d="M0 0h158.33v25h-158.33z"/></clipPath></defs></svg>