<svg viewBox="0 0 360 386" fill="none" xmlns="http://www.w3.org/2000/svg"><g clip-path="url(#a)"><g opacity=".3" stroke="#000" stroke-width=".853" stroke-miterlimit="10" stroke-linecap="round" stroke-linejoin="round"><path d="M313.62 176.64h56.78v42.3h-56.78v-42.3Zm-62.66-147.44h56.78v41.71h-56.5v5.45h56.5v44.7h-56.5v5.44h56.5v44.7h-56.5v5.44h56.5v42.3h-56.78v-189.74Zm62.66 47.16h56.78v44.7h-56.78v-44.7Zm0 50.14h56.78v44.7h-56.78v-44.7Zm56.78-55.59h-56.78v-41.7h56.78v41.7Zm-124.13 155.49h128.81v-204.65h-128.81v204.65Zm53.33-184.72-28.64 23.7m85.44 22.72-28.64 23.7m-36.06 76.57-28.65 23.7m21.53-163.48-13.13 10.87m82.77 23.21-13.13 10.87m-51.08 102.23-13.13 10.87m9.18-63.22-13.13 10.87m80.3 35.06-13.13 10.87"/><path d="M238.85 226.26h144.22v17.92h-144.22v-17.92Z"/></g><path d="M311.31 160.04c-4.88 12.19-21.17 17.55-36.4 11.97-15.22-5.59-23.6-20-18.73-32.2 4.88-12.19 21.17-17.55 36.4-11.96 15.22 5.58 23.6 20 18.73 32.19Z" fill="#21A038"/><path d="M256.18 139.82c4.88-12.2 21.17-17.56 36.4-11.97 15.22 5.58 23.6 20 18.73 32.19-4.87 12.19-21.17 17.55-36.4 11.97-15.22-5.59-23.6-20-18.73-32.2Z" stroke="#111311" stroke-width=".831" stroke-miterlimit="10" stroke-linecap="round" stroke-linejoin="round"/><path d="M265.48 158.22s-6.12 1.03-8.32-2.6c-2.2-3.64 3.18-12.95 8.22-16.92 5.04-3.97 17.75-4.56 24.07-3.16 6.31 1.4 13.22 7.25 13.55 12.65.32 5.41-2.55 10.33-2.92 11.98-.37 1.66-4.11 1.25-4.53.36-.41-.9-6.7-14.03-8.23-14.76-1.52-.73-2.75.26-4.63 1.05-1.87.78-15.93 5.18-15.93 5.18l-1.28 6.22Z" fill="#111311" stroke="#111311" stroke-width=".831" stroke-miterlimit="10" stroke-linecap="round" stroke-linejoin="round"/><path d="m268.15 295.65-.14-17.73-8.74 20.54h0c-1.76 2.4-3.88 5.5-5 7.97-2.11 4.7 3.08 20.81 3.79 19.25.7-1.56 6.3-22.01 6.3-22.01s1-3.5 1.16-6.33l2.63-1.7Z" fill="#9D9D9D" stroke="#111311" stroke-width=".831" stroke-miterlimit="10" stroke-linecap="round" stroke-linejoin="round"/><path d="M264.76 307.61s-5.7 1.33-7.4 13.33c-.47 3.27-.86 38.11-1.68 43.86l-3.38 23.83 30.04 3.28 6.92-22.23-.36 22.45 30.13 3.29s7.97-34.59 8.82-38.9c.85-4.3 4.27-13.47 5.42-26.54 1.15-13.08-.92-18.44-.92-18.44l-66.26-8.45-1.33 4.52Z" fill="#111311" stroke="#111311" stroke-width=".831" stroke-miterlimit="10" stroke-linecap="round" stroke-linejoin="round"/><path d="M285.55 189.18s-15.8 10.93-19.34 14.01c-3.65 3.2-5.1 22.87-2.96 36.77 2.13 13.9 3.47 35.16 3.08 39.39-.39 4.22-3.29 29.44-3.29 29.44s23.6 13.04 39.3 12.2c15.68-.85 27.53-6.38 27.53-6.38s3.66-43.36 5-52.82c1.33-9.46 3.74-41 3.27-52.15-.48-11.16-6.62-18.45-11.77-19.65-5.16-1.2-24.65-4.27-24.65-4.27l-16.18 3.46Z" fill="#9D9D9D" stroke="#111311" stroke-width=".831" stroke-miterlimit="10" stroke-linecap="round" stroke-linejoin="round"/><path d="M277.17 185.86s3.73 19.22 4.76 19.52c1.03.3 4.26-2.32 4.26-2.32l13.83-16.94-2.1-17.25s-3.82 8.6-9.56 13.74c-5.73 5.15-11.19 3.25-11.19 3.25Z" fill="#9D9D9D" stroke="#111311" stroke-width=".831" stroke-miterlimit="10" stroke-linecap="round" stroke-linejoin="round"/><path d="m289.9 183.41-10.3 12.57-2.57-10.27 12.87-2.3Z" fill="#111311" stroke="#111311" stroke-width=".831" stroke-miterlimit="10" stroke-linecap="round" stroke-linejoin="round"/><path d="M287.99 140.5s-8.12 5.24-14.24 6.8a126.1 126.1 0 0 1-9.14 2.06l.16 15.9c.04 3.5.4 9.39 2.44 12.11 2.02 2.73 7 9.26 9.42 11.06 2.43 1.8 7.09 1.06 8.5.51 1.42-.54 10.8-11.78 11.42-13.38.63-1.6.8-6.6.8-6.6s3.7-1.55 4.5-3.41c.8-1.86.63-9.13-.29-10.2-.92-1.08-2.79-.17-3.2.9-.43 1.07-1.45 2.63-1.45 2.63s.27-2.9-.53-4.8-.7-2.58-2.92-4.91c-2.22-2.33-5.47-8.68-5.47-8.68Z" fill="#9D9D9D" stroke="#111311" stroke-width=".831" stroke-miterlimit="10" stroke-linecap="round" stroke-linejoin="round"/><path d="m275.27 166.4-.13 3.8s4.43.35 6.75-1.66m-9.64 5.24s3.06 1.48 8.24.48c5.17-.99 6.9-4.5 6.9-4.5m-14.04-12.79s-5.58-2.63-7.78.68m14-2.11s4.39-3.49 8.28-1.4" stroke="#111311" stroke-width=".831" stroke-miterlimit="10" stroke-linecap="round" stroke-linejoin="round"/><path d="M272.09 162.1c.26 1.1.03 2.1-.51 2.22-.55.12-1.2-.68-1.46-1.78s-.03-2.1.51-2.22c.54-.12 1.2.67 1.46 1.78Zm13.06-2.3c.26 1.1.03 2.1-.51 2.22-.55.12-1.2-.68-1.46-1.78s-.03-2.1.51-2.22c.55-.12 1.2.67 1.46 1.78Z" fill="#111311"/><path d="m311.26 212.26 5.38 43.87s-.88 2.03-.66 3.32c.23 1.3.28 2.37.28 2.37s-5.45 16.35-9.62 26.27c-4.17 9.93-17.1 31.17-17.05 33.72.05 2.55-4.9 21.08-3.83 22.05 1.06.96 3.65 2.53 4.44 2.62.79.09 4.28.9 5.47 1.04 1.18.13 5.55.4 6.57-1.17 1.01-1.59.96-2.65-.28-2.37-1.24.29-3.24.27-3.24.27l-.56-1.76s1.99-7.2 1.75-12.74-.38-7.46-.38-7.46 30.49-39.62 32.57-47.45c2.07-7.82 4.86-16.42 5.4-20.39.55-3.97 1.51-40.13.87-44.23-.63-4.1-.68-8.13-3.38-11.83-2.7-3.7-4.86-3.94-6.44-4.12" fill="#9D9D9D"/><path d="m311.26 212.26 5.38 43.87s-.88 2.03-.66 3.32c.23 1.3.28 2.37.28 2.37s-5.45 16.35-9.62 26.27c-4.17 9.93-17.1 31.17-17.05 33.72.05 2.55-4.9 21.08-3.83 22.05 1.06.96 3.65 2.53 4.44 2.62.79.09 4.28.9 5.47 1.04 1.18.13 5.55.4 6.57-1.17 1.01-1.59.96-2.65-.28-2.37-1.24.29-3.24.27-3.24.27l-.56-1.76s1.99-7.2 1.75-12.74-.38-7.46-.38-7.46 30.49-39.62 32.57-47.45c2.07-7.82 4.86-16.42 5.4-20.39.55-3.97 1.51-40.13.87-44.23-.63-4.1-.68-8.13-3.38-11.83-2.7-3.7-4.86-3.94-6.44-4.12" stroke="#111311" stroke-width=".831" stroke-miterlimit="10" stroke-linecap="round" stroke-linejoin="round"/><path d="M317.92 261.01s6.45-2.02 11.34 1.07m-6.82-5.14s7.3-1.05 10.94 4.88" stroke="#111311" stroke-width=".831" stroke-miterlimit="10" stroke-linecap="round" stroke-linejoin="round"/><path d="M310.01 280.34c-1 2.6-2 5.15-2.95 7.37-4.25 9.96-17.42 31.3-17.37 33.85.05 2.56-5 21.17-3.92 22.14 1.08.97 3.71 2.54 4.51 2.62.8.1 4.36.9 5.56 1.04 1.2.13 5.64.41 6.68-1.18 1.03-1.59.98-2.66-.28-2.37-1.26.29-3.3.27-3.3.27l-.56-1.76s2.03-7.23 1.8-12.8c-.25-5.55-.38-7.48-.38-7.48s14.9-19.13 24.76-33.48c-4.23-5.99-10.37-7.76-14.55-8.22Z" fill="#9D9D9D" stroke="#111311" stroke-width=".831" stroke-miterlimit="10" stroke-linecap="round" stroke-linejoin="round"/><path d="M294.42 342.84s1.78 2 2.4 2.65c.63.65.78 1.24 2.08 1.55" fill="#9D9D9D"/><path d="M294.42 342.84s1.78 2 2.4 2.65c.63.65.78 1.24 2.08 1.55" stroke="#111311" stroke-width=".831" stroke-miterlimit="10" stroke-linecap="round" stroke-linejoin="round"/><path d="M290.18 343.37s2.79 2.7 4.65 3.38l-4.65-3.38Z" fill="#9D9D9D"/><path d="M290.18 343.37s2.79 2.7 4.65 3.38" stroke="#111311" stroke-width=".831" stroke-miterlimit="10" stroke-linecap="round" stroke-linejoin="round"/><path d="M286.83 342.47s1.18 2.08 2.69 2.99l-2.69-3Z" fill="#9D9D9D"/><path d="M286.83 342.47s1.18 2.08 2.69 2.99" stroke="#111311" stroke-width=".831" stroke-miterlimit="10" stroke-linecap="round" stroke-linejoin="round"/><path d="M263.92 302.4s-.06 5.7.1 6.64c.17.95-.5 2.57-.7 6.1-.2 3.52.17 7.26-1.92 6.42-2.08-.85-2.27-6.89-1.91-8.4.35-1.5-1.62-6.34-1.62-6.34" fill="#9D9D9D"/><path d="M263.92 302.4s-.06 5.7.1 6.64c.17.95-.5 2.57-.7 6.1-.2 3.52.17 7.26-1.92 6.42-2.08-.85-2.27-6.89-1.91-8.4.35-1.5-1.62-6.34-1.62-6.34" stroke="#111311" stroke-width=".831" stroke-miterlimit="10" stroke-linecap="round" stroke-linejoin="round"/><path d="M225.42 273.42c-1.64-4.57-10.48-66.1-10.48-66.1-4.1 8.44-11.25 51.3-11.25 51.3l-1 23-.84 4.26c4.57-2.63 15.62-7.62 21.5 1 .16-.4.29-.75.36-1.02 1.59-5.67 3.35-7.86 1.71-12.44Z" fill="#21A038"/><path d="M225.42 273.42c-1.64-4.57-10.48-66.1-10.48-66.1-4.1 8.44-11.25 51.3-11.25 51.3l-1 23-.84 4.26c4.57-2.63 15.62-7.62 21.5 1 .16-.4.29-.75.36-1.02 1.59-5.67 3.35-7.86 1.71-12.44Z" stroke="#111311" stroke-width=".891" stroke-miterlimit="10" stroke-linecap="round" stroke-linejoin="round"/><path d="M220.21 278.65c1.13.3 2.2.73 3.19 1.31m-19.2-.92s5.9-1.65 11.93-1.1m6.5-1.45s-4.56-3.65-8.72-2.73" stroke="#111311" stroke-width=".891" stroke-miterlimit="10" stroke-linecap="round" stroke-linejoin="round"/><path d="m109.15 387.17 6.8-46.27 6.33-25.14 74.45 4.33 4.34 18.86-2.97 57.18-37.52-3.52-2.42-38.29-2.48 3.44-4.9 33.11-41.63-3.7Z" fill="#111311" stroke="#111311" stroke-width=".891" stroke-miterlimit="10" stroke-linecap="round" stroke-linejoin="round"/><path d="M155.44 191.77s-33.09 5.78-35.16 6.6c-2.07.8-1.5 31.37.15 42.64 1.66 11.27 4 52.3 4 52.3l-4.1 29.11s31.3 3.75 44.05 3.33c12.76-.41 26.97-2.71 26.97-2.71s7.65-25.35 8.22-42.47c.58-17.12 10.25-58.84 10.66-61.63.42-2.79 3.68-12.99 3.68-12.99s-22.97-9.84-29.02-11.21c-6.05-1.38-20.44-3.14-29.45-2.97Z" fill="#21A038" stroke="#111311" stroke-width=".891" stroke-miterlimit="10" stroke-linecap="round" stroke-linejoin="round"/><path d="M147 199.02s2.95 11.66 11.81 19.47m22.26-17.82s-2.23 4.16-5.57 8.59m-.85 2.29-1.95 2.18m-21.82 107.39c7.67.39 21.77.7 31.18-1.51m-36.62 1.19s.87.07 2.37.16m29.91-5.38c-10.15.38-25.45.1-36.94-3.92m47.76 3.5s-2.58.25-6.71.42m7.35-14.38c-6.4 2.89-18.57 7.64-30.26 8.12m34.88-10.3s-.87.46-2.42 1.18" stroke="#111311" stroke-width=".891" stroke-miterlimit="10" stroke-linecap="round" stroke-linejoin="round"/><path d="m151.07 180.56-.65 16.22s3.3 12.1 14.45 12.39c10.94.28 14.31-13.85 14.31-13.85l-.08-17.2s-10.54 7.34-15.8 6.12c-5.24-1.21-12.23-3.68-12.23-3.68Z" fill="#9D9D9D" stroke="#111311" stroke-width=".891" stroke-miterlimit="10" stroke-linecap="round" stroke-linejoin="round"/><path d="M141.82 160.85s-1.64-2.78-3.42-.57c-1.77 2.2-.8 8.66 1.75 10.28 2.53 1.6 3.25 1.68 3.25 1.68s2.29 6.58 3.68 8.58c1.4 2 12.14 11.88 14.93 12.64 2.78.76 6.96.28 8.76-1.3 1.8-1.58 8.32-12.95 9.45-15.72 1.14-2.76 1.35-3.37 1.6-5.09.26-1.72.35-3.21.35-3.21s3.38-4.05 4.13-7.48c.75-3.42.3-6.09-1.42-6.75-1.71-.66-4.16 2.85-4.16 2.85l-3.64-19.56s-1.38-5.38-3.07-6.16c-1.7-.78-14.68-.38-20.39 1.46-5.7 1.83-11.31 3.8-12.05 6.35-.74 2.56.25 22 .25 22Z" fill="#9D9D9D" stroke="#111311" stroke-width=".891" stroke-miterlimit="10" stroke-linecap="round" stroke-linejoin="round"/><path d="M154.45 135.32s-10.53 1.16-11.34 2.83c-.81 1.67-2.04 4.87-1.3 7.46.75 2.6.34 15.6.34 15.6s1.07 4.18.04 3.5c-1.03-.68-1.25-5.56-1.53-6.17a217.3 217.3 0 0 1-4.73-13.87c-.98-3.59 2.48-6.57 3.33-7.27.86-.7 1.78-1.78 1.78-1.78s-.11-5.65 2.67-7.92c2.79-2.26 21.2-4.43 22.76-4.86 1.57-.44 3.54-3.56 4.96-4.2 1.41-.65 5.03 1.63 6.74 6.66 1.7 5.02 1.32 6.34.43 7.23l-.88.9s2.54.62 3.12 4.37c.57 3.75 1.55 7.34 1.12 10.22-.42 2.88-1.52 8.38-1.6 8.96-.1.57-.66-.03-.94-2-.27-1.97-3.21-16.45-3.73-18.05a36.8 36.8 0 0 0-1.5-3.84c-.29-.61-15.61-1.46-19.74 2.23Z" fill="#111311" stroke="#111311" stroke-width=".891" stroke-miterlimit="10" stroke-linecap="round" stroke-linejoin="round"/><path d="M162.24 193.4c2.8.76 7 .28 8.81-1.3 1.82-1.6 8.36-13.01 9.5-15.8 1.14-2.77 1.35-3.38 1.61-5.1.26-1.74.36-3.23.36-3.23l-1.08-11.94-.26.33c-.16 3.64-.5 10.67-.74 11.66-.32 1.35-1.97 2.7-3.45 2.81-1.47.12-8.14-1.64-11.17-1.67-3.03-.03-4.15.99-6.61 2.01-2.46 1.03-7.57 3.56-8.83 3.81-1.25.26-3.4-.82-4.17-2.14-.78-1.33-3.42-12.06-3.42-12.06-.09.66-.9 1.87-.9 1.87l1.64 9.43s2.3 6.61 3.7 8.63c1.4 2.01 12.2 11.93 15 12.69Z" fill="#111311"/><path d="M162.24 193.4c2.8.76 7 .28 8.81-1.3 1.82-1.6 8.36-13.01 9.5-15.8 1.14-2.77 1.35-3.38 1.61-5.1.26-1.74.36-3.23.36-3.23l-1.08-11.94-.26.33c-.16 3.64-.5 10.67-.74 11.66-.32 1.35-1.97 2.7-3.45 2.81-1.47.12-8.14-1.64-11.17-1.67-3.03-.03-4.15.99-6.61 2.01-2.46 1.03-7.57 3.56-8.83 3.81-1.25.26-3.4-.82-4.17-2.14-.78-1.33-3.42-12.06-3.42-12.06-.09.66-.9 1.87-.9 1.87l1.64 9.43s2.3 6.61 3.7 8.63c1.4 2.01 12.2 11.93 15 12.69Z" stroke="#111311" stroke-width=".891" stroke-miterlimit="10" stroke-linecap="round" stroke-linejoin="round"/><path d="M165.72 151.9s-2.3 2.11-2.03 2.88 3.35 14.65 3.02 16.1c-.33 1.44-2.4 1.96-3.94 1.3-1.54-.64-2.04-5.14-2.04-5.14" fill="#9D9D9D"/><path d="M165.72 151.9s-2.3 2.11-2.03 2.88 3.35 14.65 3.02 16.1c-.33 1.44-2.4 1.96-3.94 1.3-1.54-.64-2.04-5.14-2.04-5.14" stroke="#111311" stroke-width=".891" stroke-miterlimit="10" stroke-linecap="round" stroke-linejoin="round"/><path d="M167.85 150.92s4.7-2.5 8.31-.14m-19.98 1.65s-6.55-2.36-9.96 2.56" stroke="#111311" stroke-width="2.672" stroke-miterlimit="10" stroke-linecap="round" stroke-linejoin="round"/><path d="M154.82 158.53c.14 1.03-.26 1.95-.9 2.04-.64.1-1.26-.67-1.4-1.7-.14-1.05.27-1.96.9-2.06.64-.09 1.27.68 1.4 1.72Z" fill="#111311"/><path d="M152.5 158.86c-.16-1.03.24-1.95.89-2.04.65-.1 1.3.67 1.46 1.7.16 1.04-.24 1.95-.9 2.05-.64.1-1.3-.67-1.45-1.7Z" stroke="#111311" stroke-width=".891" stroke-miterlimit="10" stroke-linecap="round" stroke-linejoin="round"/><path d="M171.29 156.05c.13 1.04-.27 1.95-.9 2.05-.64.09-1.27-.68-1.4-1.72-.14-1.03.26-1.95.9-2.04.64-.1 1.26.67 1.4 1.7Z" fill="#111311"/><path d="M168.96 156.39c-.15-1.04.24-1.95.9-2.05.64-.1 1.3.67 1.45 1.7.16 1.04-.24 1.96-.89 2.05-.64.1-1.3-.67-1.46-1.7Zm-11.42 21.08s8.35 2.69 13.92-2.5m53.26 110.87a7.93 7.93 0 0 1 0 0Z" stroke="#111311" stroke-width=".891" stroke-miterlimit="10" stroke-linecap="round" stroke-linejoin="round"/><path d="M224.3 286.23c-6-8.69-17.28-3.65-21.96-1l-4.86 21.03-1.55 3.9s-9 8.05-10.24 9.75a16.85 16.85 0 0 1-4.28 3.84c-1.3.89-3.93 1.45-4.3 2.63-.37 1.18 3.4 2.14 4.65 1.65 1.24-.49 4.6-3.4 4.6-3.4l-2.5 5.01 14.24 8.21s1.44-4.51 2.24-7.27c.8-2.75 2.35-9.27 2.72-10.45.36-1.15 18.91-27.36 21.44-34.43l-.2.53Zm-104.95-88.39s-4.37 3.4-5.69 7.1c-1.31 3.7-20.07 49.79-23.98 56.66-3.9 6.87-5.13 12.6-3.82 15.54 1.31 2.94 28.44 27.88 28.44 27.88s1.8 11.44 2.36 14.31c.54 2.87 1.56 7.8 1.56 7.8l12.68-4.64s1.91 2.8 3.26 4.13c1.36 1.34 3.18 2.12 3.73.96.56-1.15-1.24-4.74-1.24-4.74s-.8-2.5-.7-4.5c.1-2-2.23-5.84-3.12-7.74-.88-1.9-9.27-9.33-9.27-9.33l-15-32.45 10.95-28.5s-2.5-34.45-.16-42.48Z" fill="#9D9D9D" stroke="#111311" stroke-width=".891" stroke-miterlimit="10" stroke-linecap="round" stroke-linejoin="round"/><path d="m107.76 268.7 11.44-23.93s-3.07-38.91-.76-46.93c0 0-4.33 3.4-5.64 7.1-1.3 3.69-19.9 49.68-23.78 56.54-3.88 6.86-5.09 12.56-3.79 15.5.37.83 2.5 4.57 7.21 7.96 2.15-3.29 7.6-10.9 17.42-10.66l-2.1-5.59Z" fill="#21A038" stroke="#111311" stroke-width=".891" stroke-miterlimit="10" stroke-linecap="round" stroke-linejoin="round"/><path d="M94.01 265.75s6.05-.3 11.25 2.56m-3.12-3.51s4.77 1.85 6.28 3.85" stroke="#111311" stroke-width=".891" stroke-miterlimit="10" stroke-linecap="round" stroke-linejoin="round"/><path d="M203.68 305.38s-14.2 29.3-12.33 46a760.51 760.51 0 0 1 2.95 36.87l53.67 5.04s8.52-19.62 9.32-31.8a668.5 668.5 0 0 0 1.06-25.9l1.5-35.13-53.5-5.04-2.67 9.96Z" fill="#111311" stroke="#111311" stroke-width=".853" stroke-miterlimit="10" stroke-linecap="round" stroke-linejoin="round"/><path d="M225.9 337.75s6.32 20.15 8.3 35.65c1.99 15.5 1.48 18.21 1.48 18.21m-2.1-36.6s10.45-7.38 14.53-17" stroke="#111311" stroke-width=".853" stroke-miterlimit="10" stroke-linecap="round" stroke-linejoin="round"/><path d="m244.85 217.74-26.05 6.24s7.15 15.67 7.52 37.18c.37 21.51-3.52 42.99-3.52 42.99s6.01 4.64 18.51 4.34c12.5-.3 17.08-7.09 17.08-7.09s3.5-35.58.66-50.1c-2.83-14.53-14.2-33.56-14.2-33.56Z" fill="#21A038" stroke="#111311" stroke-width=".853" stroke-miterlimit="10" stroke-linecap="round" stroke-linejoin="round"/><path d="M213.49 151.3s-6.03-1.07-9.48 5.82c-3.45 6.9-13.76 31.1-13 36.71.77 5.61 3.74 7.74 4.28 13.83s-2.8 9.47-2.8 9.47 1.84 3.53 7.27 4.2c5.43.68 14.16-3.03 19.77-3.84 5.62-.82 17.78-.85 25.46-1.3 7.67-.46 10-6.12 10-6.12s-5.2.02-5.1-3.33c.1-3.34 5.8-15.4 5.11-24.19-.69-8.79-11.64-18.54-16.39-23.35-4.75-4.81-9.29-8.76-14.88-9.45-5.59-.7-9.01-.52-10.24 1.55Z" fill="#111311" stroke="#111311" stroke-width=".853" stroke-miterlimit="10" stroke-linecap="round" stroke-linejoin="round"/><path d="M206.61 181.9s-5.73 8.1-6.02 15.72c-.29 7.62 5.13 8.63 6.34 7.75m32.27-32.47s10.48 12.33 11.2 24.06" stroke="#111311" stroke-width=".853" stroke-miterlimit="10" stroke-linecap="round" stroke-linejoin="round"/><path d="m218.76 202.25 3.49 15.8s9.6 14.66 14.73 13.2c5.13-1.46 2.1-15.52 2.17-17.46.07-1.93-.28-11.5-.28-11.5s-4.06 5.27-6.26 5.06c-2.19-.2-13.85-5.1-13.85-5.1Z" fill="#9D9D9D" stroke="#111311" stroke-width=".853" stroke-miterlimit="10" stroke-linecap="round" stroke-linejoin="round"/><path d="M218.88 161.97s-10.86 15.82-11.15 18.1c-.28 2.28 4.75 16.93 6.26 19.9 1.51 2.99 13.6 10.33 16.46 10.77 2.85.45 6.14-2.61 7.14-5.18 1-2.56 4.76-9.48 5.07-13.5.12-1.5-3.01-18.8-4.42-19.81-1.42-1.02-19.36-10.28-19.36-10.28Z" fill="#9D9D9D" stroke="#111311" stroke-width=".853" stroke-miterlimit="10" stroke-linecap="round" stroke-linejoin="round"/><path d="M221.66 185.76s-3.17-1.8-5.4 1m14.51-3.26s1.01-3.53 5.03-1.96m-15.69-.64s-5.22-1.04-7.15 2.5m14.57-5.09s3.22-3.63 7.08-1.72m-3.65 14.51s-1.95 2.37-4.4 1.34" stroke="#111311" stroke-width=".853" stroke-miterlimit="10" stroke-linecap="round" stroke-linejoin="round"/><path d="M235.68 193.04s-3.87 4.68-12.93 4.54c0 0 5.4 4.97 9.02 4.13 3.62-.83 3.91-8.67 3.91-8.67Zm-26.03-4.18s-2.73-1.66-3.64 2c-.9 3.65 6.42 5.62 6.42 5.62l-2.78-7.62Zm30.75-9.89s.18-1.48 1.59-.94c1.4.54 3.39 5.17 2.87 7.74-.51 2.56-2.23 2.42-2.23 2.42l-2.23-9.22Z" fill="#9D9D9D" stroke="#111311" stroke-width=".853" stroke-miterlimit="10" stroke-linecap="round" stroke-linejoin="round"/><path d="M214.3 216.37s-20.94 11.65-22.06 14c-1.12 2.34 4.18 75.55 4.18 75.55s-23.98 42.19-20.29 50.25c3.7 8.06 23.76 17.34 24.58 18.82.82 1.49 13.84-35.63 19.21-49.65 5.38-14.02 14.47-39.42 16.3-51.69 1.82-12.26-.99-29-1.99-34.52-1-5.53-2.83-15.16-2.83-15.16l-17.1-7.6Z" fill="#111311" stroke="#111311" stroke-width=".853" stroke-miterlimit="10" stroke-linecap="round" stroke-linejoin="round"/><path d="M219.13 208.79s12.7 15.17 11.93 15.78c-.77.62-10.27 11.8-10.27 11.8l-10.42-19.37 8.76-8.21Zm23.29 16.18s10.01 16.37 13.63 27.75c3.62 11.38 3.58 30.99 2.65 38.6l-1.74 14.37s.7 36.84 1.62 43.06c.9 6.21 2.18 17.72 2.18 17.72s2.06-.5 2.82-8.14c.75-7.63 1.87-38.86 1.06-51.38-.82-12.5.7-32.98-.35-36.75l-1.04-3.78 18.24-3.68s-9.7-11.5-11.33-27.83c-.74-7.44-3.87-11.67-5.83-13.44-1.95-1.76-17.38-5-20.03-5.08-2.66-.08-1.88 8.58-1.88 8.58Z" fill="#111311" stroke="#111311" stroke-width=".853" stroke-miterlimit="10" stroke-linecap="round" stroke-linejoin="round"/><path d="M240.56 225.09s.79-2.23 1.76-1.78c.97.44 8.94 6.32 9.85 5.87.9-.44-7.21-13.4-8.85-15.32-1.64-1.92-3.36-3.14-3.36-3.14l-.42 3.32 1.02 11.05Z" fill="#111311" stroke="#111311" stroke-width=".853" stroke-miterlimit="10" stroke-linecap="round" stroke-linejoin="round"/><path d="M257.25 226.9s3.87 20.13 3.74 28.64l-3.74-28.64Z" fill="#9D9D9D"/><path d="M257.25 226.9s3.87 20.13 3.74 28.64" stroke="#111311" stroke-width=".853" stroke-miterlimit="10" stroke-linecap="round" stroke-linejoin="round"/><path d="M256.48 266.57s5.22-13.96 6.15-14.74c.94-.78 8.07-3.14 8.64-3.23.57-.09 4.58 3.6 5.18 4.39.6.77 3.39 3.06 2.7 4.15-.7 1.09-2.39.06-3.35-.03-.97-.09-5.9 2.48-6.22 2.89-.33.4-2.3 3.83-2.97 4.77-.68.95-10.13 1.8-10.13 1.8Z" fill="#9D9D9D" stroke="#111311" stroke-width=".853" stroke-miterlimit="10" stroke-linecap="round" stroke-linejoin="round"/><path d="M277.62 254.34s-1.74-.93-2.32-.7c-.59.24-7.46 2.76-7.89 3.2-.42.44-.97 1.16-.97 1.16m-1.53-2.33s1.29-1.41 2.47-1.98c1.18-.56 5.2-1.72 5.69-1.86.48-.15 2.2.2 2.2.2m-2.69-1.95s-7.65 2.07-8.2 2.69l-.53.62" stroke="#111311" stroke-width=".853" stroke-miterlimit="10" stroke-linecap="round" stroke-linejoin="round"/><path d="M264.18 264.82s7.54-4.41 10.74-5.52c3.2-1.12 9.12 2.09 10.1 3.77.99 1.68 1.57 9.33.7 14.9-.85 5.56-1.33 7.99-5.18 8.86-3.86.88-9 1.1-9.53 1.22-.52.13.29-10.56-2.2-16.62-2.48-6.06-4.63-6.61-4.63-6.61Z" fill="#111311" stroke="#111311" stroke-width=".853" stroke-miterlimit="10" stroke-linecap="round" stroke-linejoin="round"/><path d="M254.88 267.27s-.79 20.02.25 22.58c1.05 2.56 4.47 2.36 8.1 1.82 3.64-.54 9-1.27 9.32-2.47.32-1.2 1.6-12.9.36-17.94-1.25-5.06-4-8.84-6.61-8.38-2.61.46-11.06 1.43-11.43 4.39Z" fill="#111311" stroke="#111311" stroke-width=".853" stroke-miterlimit="10" stroke-linecap="round" stroke-linejoin="round"/><path d="m235.12 297.82 22.92-15.72-8.25-6.92-17.6 5.52s3.27 12.46 2.93 17.12Z" fill="#9D9D9D" stroke="#111311" stroke-width=".853" stroke-miterlimit="10" stroke-linecap="round" stroke-linejoin="round"/><path d="M223.48 306.84s2.18.2 5.49-2.06c3.3-2.26 6.24-3.7 6.31-11 .08-7.29-1.96-18.65-3.42-20.22-1.46-1.57-12.15-.86-12.51-.18-.36.68 6.63 14.37 6.38 21.94-.24 7.56-2.25 11.52-2.25 11.52Z" fill="#111311" stroke="#111311" stroke-width=".853" stroke-miterlimit="10" stroke-linecap="round" stroke-linejoin="round"/><path d="M195.54 231.05s-1.16-3.2-3.99-.78-5.12 9.8-4.46 19.02c.65 9.23.87 47.63 2.2 52.48 1.33 4.85 2.56 9.4 5.94 9.87 3.4.47 14.75-.04 22.76-2.43 8.01-2.4 8.76-11.77 7.17-20.09-1.6-8.31-5.54-15.41-8.16-17.67-2.6-2.25-3.8-4.94-6.07-11.02-2.28-6.1-7.28-21.46-8.92-23.76" fill="#111311"/><path d="M195.54 231.05s-1.16-3.2-3.99-.78-5.12 9.8-4.46 19.02c.65 9.23.87 47.63 2.2 52.48 1.33 4.85 2.56 9.4 5.94 9.87 3.4.47 14.75-.04 22.76-2.43 8.01-2.4 8.76-11.77 7.17-20.09-1.6-8.31-5.54-15.41-8.16-17.67-2.6-2.25-3.8-4.94-6.07-11.02-2.28-6.1-7.28-21.46-8.92-23.76" stroke="#111311" stroke-width=".853" stroke-miterlimit="10" stroke-linecap="round" stroke-linejoin="round"/><path d="M202.47 285.01c-.77.57-1.56 1.07-2.37 1.48m12.33-12.65s-3.47 5.47-7.94 9.53" stroke="#111311" stroke-width=".853" stroke-miterlimit="10" stroke-linecap="round" stroke-linejoin="round"/><path d="M257.99 269.22s-20.73.08-26-.57c-5.27-.64-12.44-4.27-12.44-4.27s-8.57-4.78-10.4-5.99c-1.82-1.2-6.42-1.64-7.74-1.18-1.33.47-4.4 2.53-4.16 4.02.24 1.5 2.04.63 2.96-.01.93-.65 2.4-1.1 2.4-1.1l4.32 1.44.7 1.25s-6.27.57-7.16.93c-.9.36-3.93 5.66-4.5 6.78-.56 1.12-.12 1.02.72 1.1l.83.08s-.7 2.28.1 2.65c.8.37 1.98-.1 1.98-.1s.86 1.1 1.27 1.15c.42.04 5.04-2.02 5.79-2.4.75-.36 6.58 1.52 8.1 1.66 1.54.15 7.4.56 7.4.56s27.1 11.11 30.8 12.05c3.69.94 6.21 1.03 8.14-3.2 1.92-4.22.02-13.96-3.11-14.85Z" fill="#9D9D9D" stroke="#111311" stroke-width=".853" stroke-miterlimit="10" stroke-linecap="round" stroke-linejoin="round"/><path d="M199.49 273.81s4.26-3.94 5.3-4.42 3.06-1.02 3.06-1.02m-10.51 2.94 4.46-4.35 4.36-1.33m-109.6-111.99s1.15.7 3 1.39c1.86.7 6.5 2.31 8.58 4.63s1.39 7.88 1.39 7.88m-39.43 5.36-1.8 3.9" stroke="#111311" stroke-width=".853" stroke-miterlimit="10" stroke-linecap="round" stroke-linejoin="round"/><path d="M55.48 160.68s-1.26 5.97-2.54 7.34c-1.28 1.36-3.3 2.98-2.63 5.96.67 2.99 4.6 4.85 4.6 5.35-.02.5-7.14 1.86-6.95 4.1.2 2.24 2.12 4.98 2.12 4.98s-5.26 1.74-5.7 4.72c-.45 2.98 1.34 5.97 1.31 7.09-.02 1.12-3.2 3.6-2.25 5.6.95 1.98 3.2 1.73 3.3 2.1.12.38-1.28 2-1.3 2.99-.03 1 .7 1.86.7 1.86h42.02l-11.92-62.16-15.82 6.1-4.94 3.97Z" fill="#21A038" stroke="#111311" stroke-width=".853" stroke-miterlimit="10" stroke-linecap="round" stroke-linejoin="round"/><path d="M112.4 301.75s8.67 19.73 9.81 24.57c1.14 4.84 1.68 26.4-.12 34.8-3.29 15.28-12.7 29.76-12.7 29.76h-47.74l-9.85-45.96 14.38-44.78 46.23 1.62Z" fill="#9D9D9D" stroke="#111311" stroke-width=".853" stroke-miterlimit="10" stroke-linecap="round" stroke-linejoin="round"/><path d="m104.5 339.77-4.03 10.4 1.92 40.49" stroke="#111311" stroke-width=".853" stroke-miterlimit="10" stroke-linecap="round" stroke-linejoin="round"/><path d="M111.65 288.66s8.43 7.18 9.44 9.87c1.01 2.69 1.66 20.44 2.12 23.49.47 3.05-1.57 5.92-1.57 5.92l-7.28-18.12s-.7-8.06-.86-8.6l-1.5-4.85-.35-7.7Z" fill="#9D9D9D" stroke="#111311" stroke-width=".853" stroke-miterlimit="10" stroke-linecap="round" stroke-linejoin="round"/><path d="M118.6 305.16s.1 3.23.4 5.56c.3 2.33 1.28 6.64-.72 7.71" fill="#9D9D9D"/><path d="M118.6 305.16s.1 3.23.4 5.56c.3 2.33 1.28 6.64-.72 7.71" stroke="#111311" stroke-width=".853" stroke-miterlimit="10" stroke-linecap="round" stroke-linejoin="round"/><path d="m81.04 212.27 11.47.36 8.2.27 9.54 7.98s8 39.8 8.65 42.32c.66 2.5-6.8 21.34-7.37 23.13-.59 1.8.88 15.42.88 15.42s-3.67 3.41-15.55 5.02c-11.87 1.62-25.56-3.4-25.56-3.4s9-23.67 10.93-36.4c0 0 1.67-24.57 1.12-31.57-.55-7-2.3-23.13-2.3-23.13Z" fill="#21A038" stroke="#111311" stroke-width=".853" stroke-miterlimit="10" stroke-linecap="round" stroke-linejoin="round"/><path d="m109.65 271.2-18.56 9.41m17.49-6.19-8.61 4.3" stroke="#111311" stroke-width=".853" stroke-miterlimit="10" stroke-linecap="round" stroke-linejoin="round"/><path d="M77.9 199.09s6.9 23.88 7.8 28.1c.89 4.24 9.72 9.2 15.13 6.47 5.41-2.73 3.67-7.95 2.76-11.19-.92-3.23-2.88-9.57-2.88-9.57l2.09-19.4s-6.55 8.7-8.94 9.7c-2.39 1-15.96-4.11-15.96-4.11Z" fill="#9D9D9D" stroke="#111311" stroke-width=".853" stroke-miterlimit="10" stroke-linecap="round" stroke-linejoin="round"/><path d="m90.8 205.37 9.05 8.72 2.22-18.7-11.26 9.98Z" fill="#111311" stroke="#111311" stroke-width=".853" stroke-miterlimit="10" stroke-linecap="round" stroke-linejoin="round"/><path d="m100.16 213.14-.47 8.56" stroke="#111311" stroke-width=".853" stroke-miterlimit="10" stroke-linecap="round" stroke-linejoin="round"/><path d="M100.77 210.93s12.78 36.49 14.19 44.74c1.41 8.25 1.73 10.04 1.84 12.9.1 2.88-2.2 9.16-2.2 9.16s9.06-11.12 9.12-20.8c.05-9.7-6.53-38.94-9.6-40.71-12.2-7.05-13.35-5.3-13.35-5.3Z" fill="#111311" stroke="#111311" stroke-width=".853" stroke-miterlimit="10" stroke-linecap="round" stroke-linejoin="round"/><path d="M112.63 228.92s5.45 16.41 4.8 28.66" stroke="#111311" stroke-width=".853" stroke-miterlimit="10" stroke-linecap="round" stroke-linejoin="round"/><path d="m69.29 170.5 5.8-8.2 26.81 27.23s-1.63 15.91-1.64 16.4c-.01.5 1.66 3.24 1.66 3.24s.73.62 1.33 1.5c.6.86-.02.86-.17 2.1-.16 1.25.7 1.87 1.3 2.5.61.61 2.09 1.24 2.95 1.73.85.5.08 1.62-.57 2.74-.65 1.12-1.57 3.23-.5 5.47 1.06 2.24 1.7 1.86 3.51 3.6 1.83 1.74-.82 3.36-.82 3.36s1.37-.37 2.5-.74c1.13-.38 1.66-1.62 1.18-2.5-.48-.86-1.4-3.72-1.02-4.22.39-.5 3.91-2.24 4.94-3.6 1.03-1.37-.08-1.62.8-2.12s2.65-1.62 3.06-3.36c.42-1.73-1.64-3.85-1-4.47.63-.62 3.02-4.45 3.05-5.57.02-1.12-1.4-3.01-1.4-3.01s.93-.75 1.52-4.35c.58-3.6-2.25-4.73-2.45-6.72-.2-1.98 2.72-4.72 2.77-11.68.04-6.96-11.47-9.08-11.82-9.95-.35-.87.05-2.24-.15-4.1-.2-1.87-4.72-5.1-4.72-5.1s.54-1.86.94-3.1c.4-1.25-.19-2.37-2.38-4.36-2.19-1.99-12.78-11.31-17.23-12.3-4.45-1-11.9 3.85-12.79 4.34-.88.5-7.93-1.24-10.08.5-2.16 1.74-2.85 4.73-3.38 5.97-.53 1.24-2.4 1.24-3.54 2.49-1.15 1.24-3.03 12.06-3.03 12.06" fill="#21A038"/><path d="m69.29 170.5 5.8-8.2 26.81 27.23s-1.63 15.91-1.64 16.4c-.01.5 1.66 3.24 1.66 3.24s.73.62 1.33 1.5c.6.86-.02.86-.17 2.1-.16 1.25.7 1.87 1.3 2.5.61.61 2.09 1.24 2.95 1.73.85.5.08 1.62-.57 2.74-.65 1.12-1.57 3.23-.5 5.47 1.06 2.24 1.7 1.86 3.51 3.6 1.83 1.74-.82 3.36-.82 3.36s1.37-.37 2.5-.74c1.13-.38 1.66-1.62 1.18-2.5-.48-.86-1.4-3.72-1.02-4.22.39-.5 3.91-2.24 4.94-3.6 1.03-1.37-.08-1.62.8-2.12s2.65-1.62 3.06-3.36c.42-1.73-1.64-3.85-1-4.47.63-.62 3.02-4.45 3.05-5.57.02-1.12-1.4-3.01-1.4-3.01s.93-.75 1.52-4.35c.58-3.6-2.25-4.73-2.45-6.72-.2-1.98 2.72-4.72 2.77-11.68.04-6.96-11.47-9.08-11.82-9.95-.35-.87.05-2.24-.15-4.1-.2-1.87-4.72-5.1-4.72-5.1s.54-1.86.94-3.1c.4-1.25-.19-2.37-2.38-4.36-2.19-1.99-12.78-11.31-17.23-12.3-4.45-1-11.9 3.85-12.79 4.34-.88.5-7.93-1.24-10.08.5-2.16 1.74-2.85 4.73-3.38 5.97-.53 1.24-2.4 1.24-3.54 2.49-1.15 1.24-3.03 12.06-3.03 12.06" stroke="#111311" stroke-width=".853" stroke-miterlimit="10" stroke-linecap="round" stroke-linejoin="round"/><path d="M80.32 208.24s12.99 45.63 13.56 51.55c.57 5.92-19.73 44.65-23.88 52.72-4.14 8.07-13.16 32.64-14.62 41.07a377.53 377.53 0 0 0-2.6 18.47s-10.81-5.2-17.88-9.68c-7.06-4.49-8.26-7-7.7-7.9.56-.9 3.52-12 3.52-12s-6.1-6.82-5.73-7.54c.37-.72 14.26-48.42 14.26-48.42s3.66-76.75 5.1-76.75c1.43 0 35.97-1.52 35.97-1.52Z" fill="#111311" stroke="#111311" stroke-width=".853" stroke-miterlimit="10" stroke-linecap="round" stroke-linejoin="round"/><path d="m79.01 230.03 14.87 29.76" stroke="#111311" stroke-width=".853" stroke-miterlimit="10" stroke-linecap="round" stroke-linejoin="round"/><path d="M52.94 210.3s-10.7-2.16-12.57.71c-1.87 2.87-18.29 51.47-19.3 55.95-1 4.49 29.76 37.66 29.76 37.66l15.86-10.58-18.73-26.36 10.24-37.66" fill="#111311"/><path d="M52.94 210.3s-10.7-2.16-12.57.71c-1.87 2.87-18.29 51.47-19.3 55.95-1 4.49 29.76 37.66 29.76 37.66l15.86-10.58-18.73-26.36 10.24-37.66" stroke="#111311" stroke-width=".853" stroke-miterlimit="10" stroke-linecap="round" stroke-linejoin="round"/><path d="m55.5 241.73-7.64 23.63 17.1 25.63m-7.36-56.68-1.1 3.5" stroke="#111311" stroke-width=".853" stroke-miterlimit="10" stroke-linecap="round" stroke-linejoin="round"/><path d="m64.89 291-17.13 14.25 5.83 7.08 18.01-13.9-6.71-7.44Z" fill="#9D9D9D" stroke="#111311" stroke-width=".853" stroke-miterlimit="10" stroke-linecap="round" stroke-linejoin="round"/><path d="M70.33 299.06s14.32 15.78 15.92 16.5c1.6.72 4.74 4.13 5.6 5.74.86 1.61 2.06 3.77 3.3 4.66 1.23.9 1.38 1.98-.79 2.51-2.16.54-4.14.72-5.33-1.79a27.39 27.39 0 0 0-3.11-4.84l-12.24 9.14s-2.63-9.68-2.94-11.65c-.31-1.97-.95-5.2-.95-5.2l-8.24-7.9 8.78-7.17Z" fill="#9D9D9D" stroke="#111311" stroke-width=".853" stroke-miterlimit="10" stroke-linecap="round" stroke-linejoin="round"/><path d="M50.26 197.23s-1.18 7.96-.5 10.7c.72 2.9 6.54 2.37 5.35 6.22-.39 1.24-1.9 2.56-1.42 3.97.48 1.44 2.38 1.52 3.43 2.34 1.94 1.5 1.25 3.12 1.9 5.25.48 1.53 2.12 2.07 2.56 3.29.53 1.44-.48 2.34 1.12 3.92 2.8 2.73 4.9 3.23 5.28 2.98.37-.25-.36-.87 1.4-1.74 1.77-.87 5.16-2.49 4.58-3.85l-1.18-2.73c.82 1.89 3.37-.02 4.06-1.01 1.6-2.27-.84-4.71-.55-7.16.31-2.72 3.37-4.12 3.71-6.86.34-2.68-2.45-4.53-1.84-6.99.28-1.12.43-2.36.43-2.36s-.8-2.48-2.03-3.36c-1.22-.87-1.64-4.35-1.73-5.59" fill="#21A038"/><path d="M50.26 197.23s-1.18 7.96-.5 10.7c.72 2.9 6.54 2.37 5.35 6.22-.39 1.24-1.9 2.56-1.42 3.97.48 1.44 2.38 1.52 3.43 2.34 1.94 1.5 1.25 3.12 1.9 5.25.48 1.53 2.12 2.07 2.56 3.29.53 1.44-.48 2.34 1.12 3.92 2.8 2.73 4.9 3.23 5.28 2.98.37-.25-.36-.87 1.4-1.74 1.77-.87 5.16-2.49 4.58-3.85l-1.18-2.73c.82 1.89 3.37-.02 4.06-1.01 1.6-2.27-.84-4.71-.55-7.16.31-2.72 3.37-4.12 3.71-6.86.34-2.68-2.45-4.53-1.84-6.99.28-1.12.43-2.36.43-2.36s-.8-2.48-2.03-3.36c-1.22-.87-1.64-4.35-1.73-5.59" stroke="#111311" stroke-width=".853" stroke-miterlimit="10" stroke-linecap="round" stroke-linejoin="round"/><path d="M72.63 157.81s-10.05 14.62-9.28 17.7c.77 3.1 8.44 22.92 11.06 24.88 2.62 1.97 13.19 6.6 16.7 6.75 3.5.14 6.07-1.27 7.53-3.66 1.47-2.38 7.04-12.08 7.1-14.19.05-2.1-4.45-22.34-5.29-22.62-.84-.28-27.82-8.86-27.82-8.86Z" fill="#9D9D9D" stroke="#000" stroke-width=".853" stroke-miterlimit="10" stroke-linecap="round" stroke-linejoin="round"/><path d="M87.99 173.34s-.29 3.9.07 5.17 3.66 5.85 3.74 6.63c.08.78-1.2 1.56-2.98 2.24" stroke="#111311" stroke-width=".853" stroke-miterlimit="10" stroke-linecap="round" stroke-linejoin="round"/><path d="M65.3 181.56s-2.2-1.97-3.37.42c-1.18 2.39-.28 5.62 3.45 8.3 3.73 2.67 4.57 2.67 4.57 2.67l-4.65-11.4Zm36.78-9.84s2-.98 2.92 1.55c.92 2.53-.5 9-.5 9l-2.42-10.55Zm-19.05 20.58s6.47-.34 8.04-1.1c1.57-.77 4.26-3.97 4.26-3.97s.17 7.19-3.22 8.34c-2.39.8-9.08-3.27-9.08-3.27Z" fill="#9D9D9D" stroke="#111311" stroke-width=".853" stroke-miterlimit="10" stroke-linecap="round" stroke-linejoin="round"/><path d="M72.42 177.14s.41-3.78 6.9-4.35l-6.9 4.35Z" fill="#9D9D9D"/><path d="M72.42 177.14s.41-3.78 6.9-4.35" stroke="#111311" stroke-width=".853" stroke-miterlimit="10" stroke-linecap="round" stroke-linejoin="round"/><path d="M87.9 170.2s3.99-3.58 8.23.7l-8.24-.7Z" fill="#9D9D9D"/><path d="M87.9 170.2s3.99-3.58 8.23.7" stroke="#111311" stroke-width=".853" stroke-miterlimit="10" stroke-linecap="round" stroke-linejoin="round"/><path d="M80.36 179.06c.36 1.16.03 2.29-.74 2.52-.77.24-1.69-.51-2.05-1.67-.36-1.16-.03-2.3.74-2.53.77-.23 1.69.52 2.05 1.68Zm13.27-3.68c.36 1.16.03 2.3-.74 2.53-.77.23-1.69-.52-2.05-1.68-.36-1.16-.03-2.29.74-2.52.77-.24 1.69.51 2.05 1.67Z" fill="#111311"/></g><defs><clipPath id="a"><path fill="#fff" transform="translate(-29)" d="M0 0h426.63v386h-426.63z"/></clipPath></defs></svg>