<svg viewBox="0 0 18 12" fill="none" xmlns="http://www.w3.org/2000/svg"><path d="m16.97 1.5-.02-.01a1.9 1.9 0 0 0-1.42-.64h-10.53c-.57 0-1.07.24-1.42.63l-.01.02c-.3.34-.48.78-.48 1.26v2.96h-2.25a.28.28 0 0 0 0 .56h2.25v1.53h-.98a.28.28 0 0 0 0 .56h.98v.88c0 1.05.86 1.9 1.9 1.9h10.54a1.9 1.9 0 0 0 1.91-1.9v-6.5c0-.47-.18-.91-.47-1.25Zm-1.44-.09c.3 0 .56.1.78.25l-5.37 4.16a1.09 1.09 0 0 1-1.35 0l-5.36-4.17c.21-.15.48-.24.77-.24h10.53Zm1.35 7.83c0 .75-.6 1.35-1.35 1.35h-10.53c-.75 0-1.35-.6-1.35-1.35v-.87h2.76a.28.28 0 0 0 0-.56h-2.76v-5.06c0-.25.08-.49.2-.69l5.4 4.2a1.65 1.65 0 0 0 2.04 0l5.4-4.2c.12.2.19.44.19.7v6.48Z" fill="#21A038"/></svg>