<svg viewBox="0 0 20 18" fill="none" xmlns="http://www.w3.org/2000/svg"><path d="m11.91 12.4 2.61-3.55c.62-.8 1-1.81 1-2.92v-.02a5.37 5.37 0 0 0-5.4-5.4 5.39 5.39 0 0 0-5.38 5.08v.02l-.01.3c0 1.2.4 2.32 1.06 3.22l-.01-.02 2.26 3.3c-3.8.2-7.48 1.04-7.48 2.5 0 1.67 4.86 2.57 9.44 2.57 4.58 0 9.44-.9 9.44-2.56 0-1.5-3.7-2.33-7.53-2.51Zm-6.61-6.76a4.83 4.83 0 0 1 4.48-4.54h.01l.34-.02h.01a4.88 4.88 0 0 1 4.81 4.83c0 .98-.32 1.88-.87 2.6v-.01l-4.16 5.66-3.69-5.37a4.75 4.75 0 0 1-.93-3.17v.02Zm4.7 11.28c-5.5 0-8.88-1.17-8.88-2 0-.3.53-.79 2.01-1.22 1.57-.42 3.38-.7 5.25-.74h.03l.97 1.4h-2.56a.28.28 0 0 0 0 .57h6.11a.28.28 0 0 0 0-.56h-2.46l1.04-1.42c4.55.17 7.37 1.15 7.37 1.97 0 .83-3.38 2-8.88 2Z" fill="#21A038"/><path d="M11.28 6.04a1.16 1.16 0 1 1-2.32 0 1.16 1.16 0 0 1 2.32 0Z" fill="#21A038"/></svg>