<svg viewBox="0 0 18 14" fill="none" xmlns="http://www.w3.org/2000/svg"><path d="M17.33 3.6v-.01a5.2 5.2 0 0 0-4.92-3.59h-6.75a5.18 5.18 0 0 0-4.9 3.55l-.01.04v.01c-.16.47-.25 1-.25 1.57 0 .37.3.67.67.67h3l-1.38 2.3a5.6 5.6 0 0 0-.8 2.9v.65c0 .9.72 1.62 1.61 1.62h11.29c.89 0 1.61-.73 1.61-1.62 0-1.48-.46-2.85-1.25-3.97l.01.03-1.32-1.91h2.97c.37 0 .66-.3.67-.67 0-.56-.1-1.1-.26-1.6l.01.03Zm-11.66-3.04h6.73a4.62 4.62 0 0 1 4.26 2.83v.03h-3.9a2.4 2.4 0 0 0-1.81-.83h-3.9c-.73 0-1.37.32-1.81.83h-3.83a4.62 4.62 0 0 1 4.25-2.86Zm-4.6 4.6c0-.42.05-.82.16-1.21v.03h3.63c-.12.24-.2.52-.22.82-.02.18-.07.34-.14.48h-3.33a.11.11 0 0 1-.11-.12Zm14.87 6.53c0 .58-.47 1.05-1.05 1.05h-11.29c-.58 0-1.05-.47-1.05-1.05v-.64c0-.97.27-1.88.74-2.65l-.02.03 1.6-2.65c.06-.04.1-.12.1-.2.13-.2.2-.46.23-.72.08-.96.88-1.7 1.84-1.7h3.9c1 0 1.8.77 1.86 1.75a1 1 0 0 0 .18.54l1.83 2.61a6.37 6.37 0 0 1 1.13 3.62v.01Zm.97-6.41h-3.37l-.1-.16a.45.45 0 0 1-.08-.24 2.4 2.4 0 0 0-.24-.91l.01.01h3.72c.1.36.16.77.16 1.2a.1.1 0 0 1-.1.1Z" fill="#21A038"/></svg>