<svg viewBox="0 0 100 100" fill="none" xmlns="http://www.w3.org/2000/svg"><g clip-path="url(#a)"><path d="M50 5.56a44.44 44.44 0 1 0 0 88.88 44.44 44.44 0 0 0 0-88.88Zm29.03 29.52-36.5 36.48-21.56-21.56a3.93 3.93 0 1 1 5.56-5.56l16.05 16.06 30.95-30.92a3.93 3.93 0 0 1 5.55 5.56l-.05-.06Z" fill="#21A038"/><path d="m79.03 35.08-36.5 36.48-21.56-21.56a3.93 3.93 0 1 1 5.56-5.56l16.05 16.06 30.95-30.92a3.93 3.93 0 0 1 5.55 5.56l-.05-.06Z" fill="#fff"/></g><defs><clipPath id="a"><path fill="#fff" d="M0 0h100v100h-100z"/></clipPath></defs></svg>