<svg viewBox="0 0 42 42" fill="none" xmlns="http://www.w3.org/2000/svg"><path d="M21 .17a20.84 20.84 0 1 0 .02 41.68 20.84 20.84 0 0 0-.02-41.68Zm9.67 14.16c-.32 3.3-1.67 11.3-2.36 14.98-.29 1.57-.87 2.09-1.41 2.15-1.21.1-2.13-.8-3.3-1.56-1.83-1.21-2.87-1.96-4.64-3.13-2.06-1.35-.73-2.1.46-3.31.3-.31 5.64-5.17 5.75-5.6a.42.42 0 0 0-.1-.38c-.13-.1-.3-.06-.44-.04-.2.04-3.1 1.98-8.8 5.81-.83.56-1.58.85-2.25.83-.75-.02-2.16-.41-3.23-.77-1.3-.41-2.33-.64-2.25-1.37.05-.38.57-.75 1.55-1.15a938.2 938.2 0 0 1 12.14-5.23c5.8-2.41 6.98-2.83 7.77-2.83.17 0 .57.04.82.25.2.17.27.4.29.56-.02.13.02.5 0 .8Z" fill="#999"/></svg>