<svg viewBox="0 0 42 42" fill="none" xmlns="http://www.w3.org/2000/svg"><path d="M27.4.17h-12.78c-11.68 0-14.45 2.77-14.45 14.43v12.78c0 11.67 2.75 14.45 14.43 14.45h12.78c11.67 0 14.45-2.75 14.45-14.43v-12.78c0-11.68-2.75-14.45-14.43-14.45Zm6.4 29.73h-3.04c-1.15 0-1.5-.94-3.55-3-1.8-1.73-2.56-1.95-3.02-1.95-.63 0-.8.17-.8 1.04v2.74c0 .73-.24 1.17-2.17 1.17a11.86 11.86 0 0 1-9.27-5.56c-2.36-2.94-4-6.38-4.8-10.07 0-.45.18-.87 1.05-.87h3.03c.78 0 1.07.35 1.37 1.15 1.48 4.35 4 8.12 5.01 8.12.4 0 .57-.17.57-1.15v-4.47c-.13-2.04-1.22-2.21-1.22-2.95a.75.75 0 0 1 .78-.7h4.78c.65 0 .87.33.87 1.11v6.03c0 .66.28.87.47.87.4 0 .7-.21 1.42-.93a25 25 0 0 0 3.73-6.2 1.3 1.3 0 0 1 1.32-.88h3.04c.91 0 1.1.46.91 1.11a37.93 37.93 0 0 1-4.08 7.01c-.32.5-.46.76 0 1.35.3.45 1.37 1.34 2.09 2.19a13.51 13.51 0 0 1 2.56 3.56c.26.84-.18 1.28-1.05 1.28Z" fill="#999"/></svg>