<svg viewBox="0 0 50 36" fill="none" xmlns="http://www.w3.org/2000/svg"><path d="M25.16.25h.28c2.57 0 15.58.1 19.1 1.04a6.28 6.28 0 0 1 4.41 4.44c.32 1.19.54 2.76.7 4.38l.02.33.07.81.03.32c.2 2.86.22 5.54.23 6.12v.23c0 .61-.03 3.47-.26 6.44l-.02.33-.03.33a30.94 30.94 0 0 1-.74 4.86 6.27 6.27 0 0 1-4.42 4.44c-3.62.98-17.4 1.05-19.31 1.05h-.45c-.96 0-4.95-.02-9.14-.16l-.53-.02-.28-.02-.53-.02-.53-.02c-3.47-.15-6.78-.4-8.3-.81a6.27 6.27 0 0 1-4.42-4.44 30.9 30.9 0 0 1-.73-4.86l-.03-.33-.02-.33a98.12 98.12 0 0 1-.26-6.36v-.38c0-.68.03-3 .2-5.56l.02-.32.01-.17.03-.32.07-.81.03-.33c.15-1.62.37-3.2.68-4.38a6.27 6.27 0 0 1 4.43-4.44c1.52-.4 4.82-.65 8.29-.8l.53-.03.54-.02h.27l.53-.03c2.98-.1 5.95-.15 8.93-.16h.6Zm-5.16 10.03v15.05l13-7.52-13-7.53Z" fill="#999"/></svg>